<?xml version="1.0" encoding="UTF-8"?>
<svg width="151px" height="45px" viewBox="0 0 151 45" version="1.1" xmlns="http://www.w3.org/2000/svg" xmlns:xlink="http://www.w3.org/1999/xlink">
    <title>podnebnik-logo--black</title>
    <g id="Symbols" stroke="none" stroke-width="1" fill="none" fill-rule="evenodd">
        <g id="podnebnik-logo--black" fill="#212529">
            <g id="PODNEBNIK" transform="translate(54.700000, 12.333333)" fill-rule="nonzero">
                <path d="M0,11.8333333 L0,0.2 L5.23333333,0.2 C5.76666667,0.2 6.24722222,0.286111111 6.675,0.458333333 C7.10277778,0.630555556 7.46666667,0.875 7.76666667,1.19166667 C8.06666667,1.50833333 8.29444444,1.88888889 8.45,2.33333333 C8.60555556,2.77777778 8.68333333,3.26666667 8.68333333,3.8 C8.68333333,4.34444444 8.60555556,4.83611111 8.45,5.275 C8.29444444,5.71388889 8.06666667,6.09166667 7.76666667,6.40833333 C7.46666667,6.725 7.10277778,6.96944444 6.675,7.14166667 C6.24722222,7.31388889 5.76666667,7.4 5.23333333,7.4 L2.2,7.4 L2.2,11.8333333 L0,11.8333333 Z M2.2,5.5 L5.03333333,5.5 C5.45555556,5.5 5.78888889,5.38611111 6.03333333,5.15833333 C6.27777778,4.93055556 6.4,4.60555556 6.4,4.18333333 L6.4,3.41666667 C6.4,2.99444444 6.27777778,2.67222222 6.03333333,2.45 C5.78888889,2.22777778 5.45555556,2.11666667 5.03333333,2.11666667 L2.2,2.11666667 L2.2,5.5 Z" id="Shape"></path>
                <path d="M15.25,12.0333333 C14.4833333,12.0333333 13.7888889,11.9055556 13.1666667,11.65 C12.5444444,11.3944444 12.0138889,11.0111111 11.575,10.5 C11.1361111,9.98888889 10.7944444,9.36111111 10.55,8.61666667 C10.3055556,7.87222222 10.1833333,7.00555556 10.1833333,6.01666667 C10.1833333,5.03888889 10.3055556,4.175 10.55,3.425 C10.7944444,2.675 11.1361111,2.04444444 11.575,1.53333333 C12.0138889,1.02222222 12.5444444,0.638888889 13.1666667,0.383333333 C13.7888889,0.127777778 14.4833333,0 15.25,0 C16.0166667,0 16.7111111,0.127777778 17.3333333,0.383333333 C17.9555556,0.638888889 18.4888889,1.02222222 18.9333333,1.53333333 C19.3777778,2.04444444 19.7194444,2.675 19.9583333,3.425 C20.1972222,4.175 20.3166667,5.03888889 20.3166667,6.01666667 C20.3166667,7.00555556 20.1972222,7.87222222 19.9583333,8.61666667 C19.7194444,9.36111111 19.3777778,9.98888889 18.9333333,10.5 C18.4888889,11.0111111 17.9555556,11.3944444 17.3333333,11.65 C16.7111111,11.9055556 16.0166667,12.0333333 15.25,12.0333333 Z M15.25,10.0833333 C16.0833333,10.0833333 16.7472222,9.80555556 17.2416667,9.25 C17.7361111,8.69444444 17.9833333,7.91666667 17.9833333,6.91666667 L17.9833333,5.11666667 C17.9833333,4.11666667 17.7361111,3.33888889 17.2416667,2.78333333 C16.7472222,2.22777778 16.0833333,1.95 15.25,1.95 C14.4166667,1.95 13.7527778,2.22777778 13.2583333,2.78333333 C12.7638889,3.33888889 12.5166667,4.11666667 12.5166667,5.11666667 L12.5166667,6.91666667 C12.5166667,7.91666667 12.7638889,8.69444444 13.2583333,9.25 C13.7527778,9.80555556 14.4166667,10.0833333 15.25,10.0833333 Z" id="Shape"></path>
                <path d="M22.55,0.2 L26.7833333,0.2 C27.5388889,0.2 28.225,0.322222222 28.8416667,0.566666667 C29.4583333,0.811111111 29.9861111,1.175 30.425,1.65833333 C30.8638889,2.14166667 31.2027778,2.74722222 31.4416667,3.475 C31.6805556,4.20277778 31.8,5.05 31.8,6.01666667 C31.8,6.98333333 31.6805556,7.83055556 31.4416667,8.55833333 C31.2027778,9.28611111 30.8638889,9.89166667 30.425,10.375 C29.9861111,10.8583333 29.4583333,11.2222222 28.8416667,11.4666667 C28.225,11.7111111 27.5388889,11.8333333 26.7833333,11.8333333 L22.55,11.8333333 L22.55,0.2 Z M26.7833333,9.88333333 C27.6055556,9.88333333 28.2583333,9.64166667 28.7416667,9.15833333 C29.225,8.675 29.4666667,7.93333333 29.4666667,6.93333333 L29.4666667,5.1 C29.4666667,4.1 29.225,3.35833333 28.7416667,2.875 C28.2583333,2.39166667 27.6055556,2.15 26.7833333,2.15 L24.75,2.15 L24.75,9.88333333 L26.7833333,9.88333333 Z" id="Shape"></path>
                <polygon id="Path" points="37.3666667 5.86666667 36.1666667 3.45 36.1166667 3.45 36.1166667 11.8333333 34.0333333 11.8333333 34.0333333 0.2 36.45 0.2 39.95 6.16666667 41.15 8.58333333 41.2 8.58333333 41.2 0.2 43.2833333 0.2 43.2833333 11.8333333 40.8666667 11.8333333"></polygon>
                <polygon id="Path" points="46.0166667 11.8333333 46.0166667 0.2 53.6833333 0.2 53.6833333 2.15 48.2166667 2.15 48.2166667 4.96666667 53.05 4.96666667 53.05 6.91666667 48.2166667 6.91666667 48.2166667 9.88333333 53.6833333 9.88333333 53.6833333 11.8333333"></polygon>
                <path d="M56.0166667,0.2 L61.4,0.2 C61.8777778,0.2 62.3083333,0.272222222 62.6916667,0.416666667 C63.075,0.561111111 63.4,0.761111111 63.6666667,1.01666667 C63.9333333,1.27222222 64.1361111,1.58611111 64.275,1.95833333 C64.4138889,2.33055556 64.4833333,2.73888889 64.4833333,3.18333333 C64.4833333,3.62777778 64.425,4.00277778 64.3083333,4.30833333 C64.1916667,4.61388889 64.0361111,4.86666667 63.8416667,5.06666667 C63.6472222,5.26666667 63.425,5.41666667 63.175,5.51666667 C62.925,5.61666667 62.6666667,5.67222222 62.4,5.68333333 L62.4,5.78333333 C62.6555556,5.78333333 62.9305556,5.83333333 63.225,5.93333333 C63.5194444,6.03333333 63.7916667,6.19166667 64.0416667,6.40833333 C64.2916667,6.625 64.5,6.90277778 64.6666667,7.24166667 C64.8333333,7.58055556 64.9166667,8 64.9166667,8.5 C64.9166667,8.96666667 64.8416667,9.40277778 64.6916667,9.80833333 C64.5416667,10.2138889 64.3333333,10.5666667 64.0666667,10.8666667 C63.8,11.1666667 63.4833333,11.4027778 63.1166667,11.575 C62.75,11.7472222 62.35,11.8333333 61.9166667,11.8333333 L56.0166667,11.8333333 L56.0166667,0.2 Z M58.2166667,9.96666667 L61.2833333,9.96666667 C61.7055556,9.96666667 62.0333333,9.85833333 62.2666667,9.64166667 C62.5,9.425 62.6166667,9.11111111 62.6166667,8.7 L62.6166667,8.13333333 C62.6166667,7.72222222 62.5,7.40555556 62.2666667,7.18333333 C62.0333333,6.96111111 61.7055556,6.85 61.2833333,6.85 L58.2166667,6.85 L58.2166667,9.96666667 Z M58.2166667,5.05 L60.9333333,5.05 C61.3333333,5.05 61.6444444,4.94166667 61.8666667,4.725 C62.0888889,4.50833333 62.2,4.20555556 62.2,3.81666667 L62.2,3.3 C62.2,2.91111111 62.0888889,2.60833333 61.8666667,2.39166667 C61.6444444,2.175 61.3333333,2.06666667 60.9333333,2.06666667 L58.2166667,2.06666667 L58.2166667,5.05 Z" id="Shape"></path>
                <polygon id="Path" points="70.4 5.86666667 69.2 3.45 69.15 3.45 69.15 11.8333333 67.0666667 11.8333333 67.0666667 0.2 69.4833333 0.2 72.9833333 6.16666667 74.1833333 8.58333333 74.2333333 8.58333333 74.2333333 0.2 76.3166667 0.2 76.3166667 11.8333333 73.9 11.8333333"></polygon>
                <polygon id="Path" points="78.5666667 11.8333333 78.5666667 10.0666667 80.1 10.0666667 80.1 1.96666667 78.5666667 1.96666667 78.5666667 0.2 83.85 0.2 83.85 1.96666667 82.3 1.96666667 82.3 10.0666667 83.85 10.0666667 83.85 11.8333333"></polygon>
                <polygon id="Path" points="89.85 6.56666667 88.3 8.4 88.3 11.8333333 86.1 11.8333333 86.1 0.2 88.3 0.2 88.3 5.93333333 88.3833333 5.93333333 90.0333333 3.75 92.9166667 0.2 95.45 0.2 91.4 5.05 95.7833333 11.8333333 93.1666667 11.8333333"></polygon>
            </g>
            <g id="zdavniki-sledilnik-logo" transform="translate(54.420000, 28.600000)" fill-rule="nonzero">
                <g id="ZDRAVNIKI-SLEDILNIK">
                    <path d="M1.76666667,4.81333333 C1.35777778,4.81333333 1.01111111,4.74333333 0.726666667,4.60333333 C0.442222222,4.46333333 0.2,4.28222222 0,4.06 L0.666666667,3.38666667 C0.982222222,3.74222222 1.37111111,3.92 1.83333333,3.92 C2.08222222,3.92 2.26666667,3.86888889 2.38666667,3.76666667 C2.50666667,3.66444444 2.56666667,3.52888889 2.56666667,3.36 C2.56666667,3.23111111 2.53111111,3.12333333 2.46,3.03666667 C2.38888889,2.95 2.24444444,2.89111111 2.02666667,2.86 L1.56666667,2.8 C1.07333333,2.73777778 0.712222222,2.58888889 0.483333333,2.35333333 C0.254444444,2.11777778 0.14,1.80444444 0.14,1.41333333 C0.14,1.20444444 0.18,1.01333333 0.26,0.84 C0.34,0.666666667 0.454444444,0.517777778 0.603333333,0.393333333 C0.752222222,0.268888889 0.934444444,0.172222222 1.15,0.103333333 C1.36555556,0.0344444444 1.61111111,0 1.88666667,0 C2.23777778,0 2.54666667,0.0555555556 2.81333333,0.166666667 C3.08,0.277777778 3.30888889,0.44 3.5,0.653333333 L2.82666667,1.33333333 C2.71555556,1.20444444 2.58111111,1.09888889 2.42333333,1.01666667 C2.26555556,0.934444444 2.06666667,0.893333333 1.82666667,0.893333333 C1.6,0.893333333 1.43111111,0.933333333 1.32,1.01333333 C1.20888889,1.09333333 1.15333333,1.20444444 1.15333333,1.34666667 C1.15333333,1.50666667 1.19666667,1.62222222 1.28333333,1.69333333 C1.37,1.76444444 1.51111111,1.81555556 1.70666667,1.84666667 L2.16666667,1.92 C2.64666667,1.99555556 3.00222222,2.14333333 3.23333333,2.36333333 C3.46444444,2.58333333 3.58,2.89555556 3.58,3.3 C3.58,3.52222222 3.54,3.72666667 3.46,3.91333333 C3.38,4.1 3.26333333,4.26 3.11,4.39333333 C2.95666667,4.52666667 2.76666667,4.63 2.54,4.70333333 C2.31333333,4.77666667 2.05555556,4.81333333 1.76666667,4.81333333 Z" id="S"></path>
                    <polygon id="L" points="6.42 4.73333333 6.42 0.08 7.43333333 0.08 7.43333333 3.83333333 9.20666667 3.83333333 9.20666667 4.73333333"></polygon>
                    <polygon id="E" points="11.9533333 4.73333333 11.9533333 0.08 15.12 0.08 15.12 0.98 12.9666667 0.98 12.9666667 1.93333333 14.8133333 1.93333333 14.8133333 2.82666667 12.9666667 2.82666667 12.9666667 3.83333333 15.12 3.83333333 15.12 4.73333333"></polygon>
                    <path d="M18,0.08 L19.7533333,0.08 C20.06,0.08 20.34,0.128888889 20.5933333,0.226666667 C20.8466667,0.324444444 21.0622222,0.47 21.24,0.663333333 C21.4177778,0.856666667 21.5555556,1.09888889 21.6533333,1.39 C21.7511111,1.68111111 21.8,2.02 21.8,2.40666667 C21.8,2.79333333 21.7511111,3.13222222 21.6533333,3.42333333 C21.5555556,3.71444444 21.4177778,3.95666667 21.24,4.15 C21.0622222,4.34333333 20.8466667,4.48888889 20.5933333,4.58666667 C20.34,4.68444444 20.06,4.73333333 19.7533333,4.73333333 L18,4.73333333 L18,0.08 Z M19.7533333,3.83333333 C20.0555556,3.83333333 20.2933333,3.74888889 20.4666667,3.58 C20.64,3.41111111 20.7266667,3.14 20.7266667,2.76666667 L20.7266667,2.04666667 C20.7266667,1.67333333 20.64,1.40222222 20.4666667,1.23333333 C20.2933333,1.06444444 20.0555556,0.98 19.7533333,0.98 L19.0133333,0.98 L19.0133333,3.83333333 L19.7533333,3.83333333 Z" id="D"></path>
                    <polygon id="I" points="24.4666667 4.73333333 24.4666667 3.92666667 25.0666667 3.92666667 25.0666667 0.886666667 24.4666667 0.886666667 24.4666667 0.08 26.68 0.08 26.68 0.886666667 26.08 0.886666667 26.08 3.92666667 26.68 3.92666667 26.68 4.73333333"></polygon>
                    <polygon id="L" points="29.5266667 4.73333333 29.5266667 0.08 30.54 0.08 30.54 3.83333333 32.3133333 3.83333333 32.3133333 4.73333333"></polygon>
                    <polygon id="N" points="36.48 2.53333333 36.0333333 1.6 36.0133333 1.6 36.0133333 4.73333333 35.06 4.73333333 35.06 0.08 36.1666667 0.08 37.44 2.28 37.8866667 3.21333333 37.9066667 3.21333333 37.9066667 0.08 38.86 0.08 38.86 4.73333333 37.7533333 4.73333333"></polygon>
                    <polygon id="I" points="41.7066667 4.73333333 41.7066667 3.92666667 42.3066667 3.92666667 42.3066667 0.886666667 41.7066667 0.886666667 41.7066667 0.08 43.92 0.08 43.92 0.886666667 43.32 0.886666667 43.32 3.92666667 43.92 3.92666667 43.92 4.73333333"></polygon>
                    <polygon id="K" points="48.3866667 2.70666667 47.78 3.44 47.78 4.73333333 46.7666667 4.73333333 46.7666667 0.08 47.78 0.08 47.78 2.29333333 47.82 2.29333333 48.48 1.39333333 49.5266667 0.08 50.6733333 0.08 49.1066667 1.99333333 50.8133333 4.73333333 49.62 4.73333333"></polygon>
                </g>
            </g>
            <path d="M32.0833333,30 C33.2339266,30 34.1666667,30.9327401 34.1666667,32.0833333 C34.1666667,33.2339266 33.2339266,34.1666667 32.0833333,34.1666667 C30.9327401,34.1666667 30,33.2339266 30,32.0833333 C30,30.9327401 30.9327401,30 32.0833333,30 Z M12.9166667,30 C14.0672599,30 15,30.9327401 15,32.0833333 C15,33.2339266 14.0672599,34.1666667 12.9166667,34.1666667 C11.7660734,34.1666667 10.8333333,33.2339266 10.8333333,32.0833333 C10.8333333,30.9327401 11.7660734,30 12.9166667,30 Z M22.0833333,14.1666667 C26.9158249,14.1666667 30.8333333,18.0841751 30.8333333,22.9166667 C30.8333333,27.7491582 26.9158249,31.6666667 22.0833333,31.6666667 C17.2508418,31.6666667 13.3333333,27.7491582 13.3333333,22.9166667 C13.3333333,18.0841751 17.2508418,14.1666667 22.0833333,14.1666667 Z M32.0833333,10.8333333 C33.2339266,10.8333333 34.1666667,11.7660734 34.1666667,12.9166667 C34.1666667,14.0672599 33.2339266,15 32.0833333,15 C30.9327401,15 30,14.0672599 30,12.9166667 C30,11.7660734 30.9327401,10.8333333 32.0833333,10.8333333 Z M12.9166667,10.8333333 C14.0672599,10.8333333 15,11.7660734 15,12.9166667 C15,14.0672599 14.0672599,15 12.9166667,15 C11.7660734,15 10.8333333,14.0672599 10.8333333,12.9166667 C10.8333333,11.7660734 11.7660734,10.8333333 12.9166667,10.8333333 Z M22.5,10 C23.4204746,10 24.1666667,9.25380792 24.1666667,8.33333333 C24.1666667,7.41285875 23.4204746,6.66666667 22.5,6.66666667 C21.5795254,6.66666667 20.8333333,7.41285875 20.8333333,8.33333333 C20.8333333,9.25380792 21.5795254,10 22.5,10 Z M22.5,38.3333333 C23.4204746,38.3333333 24.1666667,37.5871412 24.1666667,36.6666667 C24.1666667,35.7461921 23.4204746,35 22.5,35 C21.5795254,35 20.8333333,35.7461921 20.8333333,36.6666667 C20.8333333,37.5871412 21.5795254,38.3333333 22.5,38.3333333 Z M37.5,39.1666667 C38.4204746,39.1666667 39.1666667,38.4204746 39.1666667,37.5 C39.1666667,36.5795254 38.4204746,35.8333333 37.5,35.8333333 C36.5795254,35.8333333 35.8333333,36.5795254 35.8333333,37.5 C35.8333333,38.4204746 36.5795254,39.1666667 37.5,39.1666667 Z M22.5,45 C22.9602373,45 23.3333333,44.626904 23.3333333,44.1666667 C23.3333333,43.7064294 22.9602373,43.3333333 22.5,43.3333333 C22.0397627,43.3333333 21.6666667,43.7064294 21.6666667,44.1666667 C21.6666667,44.626904 22.0397627,45 22.5,45 Z M38.3333333,22.5 C38.3333333,21.5795254 37.5871412,20.8333333 36.6666667,20.8333333 C35.7461921,20.8333333 35,21.5795254 35,22.5 C35,23.4204746 35.7461921,24.1666667 36.6666667,24.1666667 C37.5871412,24.1666667 38.3333333,23.4204746 38.3333333,22.5 Z M39.1666667,7.5 C39.1666667,6.57952542 38.4204746,5.83333333 37.5,5.83333333 C36.5795254,5.83333333 35.8333333,6.57952542 35.8333333,7.5 C35.8333333,8.42047458 36.5795254,9.16666667 37.5,9.16666667 C38.4204746,9.16666667 39.1666667,8.42047458 39.1666667,7.5 Z M45,22.5 C45,22.0397627 44.626904,21.6666667 44.1666667,21.6666667 C43.7064294,21.6666667 43.3333333,22.0397627 43.3333333,22.5 C43.3333333,22.9602373 43.7064294,23.3333333 44.1666667,23.3333333 C44.626904,23.3333333 45,22.9602373 45,22.5 Z M6.66666667,22.5 C6.66666667,21.5795254 7.41285875,20.8333333 8.33333333,20.8333333 C9.25380792,20.8333333 10,21.5795254 10,22.5 C10,23.4204746 9.25380792,24.1666667 8.33333333,24.1666667 C7.41285875,24.1666667 6.66666667,23.4204746 6.66666667,22.5 Z M5,7.5 C5,6.57952542 5.74619208,5.83333333 6.66666667,5.83333333 C7.58714125,5.83333333 8.33333333,6.57952542 8.33333333,7.5 C8.33333333,8.42047458 7.58714125,9.16666667 6.66666667,9.16666667 C5.74619208,9.16666667 5,8.42047458 5,7.5 Z M-6.66133815e-16,22.5 C-6.66133815e-16,22.0397627 0.373096042,21.6666667 0.833333333,21.6666667 C1.29357062,21.6666667 1.66666667,22.0397627 1.66666667,22.5 C1.66666667,22.9602373 1.29357062,23.3333333 0.833333333,23.3333333 C0.373096042,23.3333333 -6.66133815e-16,22.9602373 -6.66133815e-16,22.5 Z M5,37.5 C5,38.4204746 5.74619208,39.1666667 6.66666667,39.1666667 C7.58714125,39.1666667 8.33333333,38.4204746 8.33333333,37.5 C8.33333333,36.5795254 7.58714125,35.8333333 6.66666667,35.8333333 C5.74619208,35.8333333 5,36.5795254 5,37.5 Z M22.5,1.66666667 C22.9602373,1.66666667 23.3333333,1.29357062 23.3333333,0.833333333 C23.3333333,0.373096042 22.9602373,0 22.5,0 C22.0397627,0 21.6666667,0.373096042 21.6666667,0.833333333 C21.6666667,1.29357062 22.0397627,1.66666667 22.5,1.66666667 Z" id="Combined-Shape"></path>
        </g>
    </g>
</svg>