<?xml version="1.0" encoding="UTF-8"?>
<svg width="181px" height="54px" viewBox="0 0 181 54" version="1.1" xmlns="http://www.w3.org/2000/svg" xmlns:xlink="http://www.w3.org/1999/xlink">
    <title>podnebnik-logo--orange</title>
    <g id="Symbols" stroke="none" stroke-width="1" fill="none" fill-rule="evenodd">
        <g id="podnebnik-logo--orange" fill="#FFB644">
            <g id="PODNEBNIK" transform="translate(65.640000, 14.800000)" fill-rule="nonzero">
                <path d="M0,14.2 L0,0.24 L6.28,0.24 C6.92,0.24 7.49666667,0.343333333 8.01,0.55 C8.52333333,0.756666667 8.96,1.05 9.32,1.43 C9.68,1.81 9.95333333,2.26666667 10.14,2.8 C10.3266667,3.33333333 10.42,3.92 10.42,4.56 C10.42,5.21333333 10.3266667,5.80333333 10.14,6.33 C9.95333333,6.85666667 9.68,7.31 9.32,7.69 C8.96,8.07 8.52333333,8.36333333 8.01,8.57 C7.49666667,8.77666667 6.92,8.88 6.28,8.88 L2.64,8.88 L2.64,14.2 L0,14.2 Z M2.64,6.6 L6.04,6.6 C6.54666667,6.6 6.94666667,6.46333333 7.24,6.19 C7.53333333,5.91666667 7.68,5.52666667 7.68,5.02 L7.68,4.1 C7.68,3.59333333 7.53333333,3.20666667 7.24,2.94 C6.94666667,2.67333333 6.54666667,2.54 6.04,2.54 L2.64,2.54 L2.64,6.6 Z" id="Shape"></path>
                <path d="M18.3,14.44 C17.38,14.44 16.5466667,14.2866667 15.8,13.98 C15.0533333,13.6733333 14.4166667,13.2133333 13.89,12.6 C13.3633333,11.9866667 12.9533333,11.2333333 12.66,10.34 C12.3666667,9.44666667 12.22,8.40666667 12.22,7.22 C12.22,6.04666667 12.3666667,5.01 12.66,4.11 C12.9533333,3.21 13.3633333,2.45333333 13.89,1.84 C14.4166667,1.22666667 15.0533333,0.766666667 15.8,0.46 C16.5466667,0.153333333 17.38,0 18.3,0 C19.22,0 20.0533333,0.153333333 20.8,0.46 C21.5466667,0.766666667 22.1866667,1.22666667 22.72,1.84 C23.2533333,2.45333333 23.6633333,3.21 23.95,4.11 C24.2366667,5.01 24.38,6.04666667 24.38,7.22 C24.38,8.40666667 24.2366667,9.44666667 23.95,10.34 C23.6633333,11.2333333 23.2533333,11.9866667 22.72,12.6 C22.1866667,13.2133333 21.5466667,13.6733333 20.8,13.98 C20.0533333,14.2866667 19.22,14.44 18.3,14.44 Z M18.3,12.1 C19.3,12.1 20.0966667,11.7666667 20.69,11.1 C21.2833333,10.4333333 21.58,9.5 21.58,8.3 L21.58,6.14 C21.58,4.94 21.2833333,4.00666667 20.69,3.34 C20.0966667,2.67333333 19.3,2.34 18.3,2.34 C17.3,2.34 16.5033333,2.67333333 15.91,3.34 C15.3166667,4.00666667 15.02,4.94 15.02,6.14 L15.02,8.3 C15.02,9.5 15.3166667,10.4333333 15.91,11.1 C16.5033333,11.7666667 17.3,12.1 18.3,12.1 Z" id="Shape"></path>
                <path d="M27.06,0.24 L32.14,0.24 C33.0466667,0.24 33.87,0.386666667 34.61,0.68 C35.35,0.973333333 35.9833333,1.41 36.51,1.99 C37.0366667,2.57 37.4433333,3.29666667 37.73,4.17 C38.0166667,5.04333333 38.16,6.06 38.16,7.22 C38.16,8.38 38.0166667,9.39666667 37.73,10.27 C37.4433333,11.1433333 37.0366667,11.87 36.51,12.45 C35.9833333,13.03 35.35,13.4666667 34.61,13.76 C33.87,14.0533333 33.0466667,14.2 32.14,14.2 L27.06,14.2 L27.06,0.24 Z M32.14,11.86 C33.1266667,11.86 33.91,11.57 34.49,10.99 C35.07,10.41 35.36,9.52 35.36,8.32 L35.36,6.12 C35.36,4.92 35.07,4.03 34.49,3.45 C33.91,2.87 33.1266667,2.58 32.14,2.58 L29.7,2.58 L29.7,11.86 L32.14,11.86 Z" id="Shape"></path>
                <polygon id="Path" points="44.84 7.04 43.4 4.14 43.34 4.14 43.34 14.2 40.84 14.2 40.84 0.24 43.74 0.24 47.94 7.4 49.38 10.3 49.44 10.3 49.44 0.24 51.94 0.24 51.94 14.2 49.04 14.2"></polygon>
                <polygon id="Path" points="55.22 14.2 55.22 0.24 64.42 0.24 64.42 2.58 57.86 2.58 57.86 5.96 63.66 5.96 63.66 8.3 57.86 8.3 57.86 11.86 64.42 11.86 64.42 14.2"></polygon>
                <path d="M67.22,0.24 L73.68,0.24 C74.2533333,0.24 74.77,0.326666667 75.23,0.5 C75.69,0.673333333 76.08,0.913333333 76.4,1.22 C76.72,1.52666667 76.9633333,1.90333333 77.13,2.35 C77.2966667,2.79666667 77.38,3.28666667 77.38,3.82 C77.38,4.35333333 77.31,4.80333333 77.17,5.17 C77.03,5.53666667 76.8433333,5.84 76.61,6.08 C76.3766667,6.32 76.11,6.5 75.81,6.62 C75.51,6.74 75.2,6.80666667 74.88,6.82 L74.88,6.94 C75.1866667,6.94 75.5166667,7 75.87,7.12 C76.2233333,7.24 76.55,7.43 76.85,7.69 C77.15,7.95 77.4,8.28333333 77.6,8.69 C77.8,9.09666667 77.9,9.6 77.9,10.2 C77.9,10.76 77.81,11.2833333 77.63,11.77 C77.45,12.2566667 77.2,12.68 76.88,13.04 C76.56,13.4 76.18,13.6833333 75.74,13.89 C75.3,14.0966667 74.82,14.2 74.3,14.2 L67.22,14.2 L67.22,0.24 Z M69.86,11.96 L73.54,11.96 C74.0466667,11.96 74.44,11.83 74.72,11.57 C75,11.31 75.14,10.9333333 75.14,10.44 L75.14,9.76 C75.14,9.26666667 75,8.88666667 74.72,8.62 C74.44,8.35333333 74.0466667,8.22 73.54,8.22 L69.86,8.22 L69.86,11.96 Z M69.86,6.06 L73.12,6.06 C73.6,6.06 73.9733333,5.93 74.24,5.67 C74.5066667,5.41 74.64,5.04666667 74.64,4.58 L74.64,3.96 C74.64,3.49333333 74.5066667,3.13 74.24,2.87 C73.9733333,2.61 73.6,2.48 73.12,2.48 L69.86,2.48 L69.86,6.06 Z" id="Shape"></path>
                <polygon id="Path" points="84.48 7.04 83.04 4.14 82.98 4.14 82.98 14.2 80.48 14.2 80.48 0.24 83.38 0.24 87.58 7.4 89.02 10.3 89.08 10.3 89.08 0.24 91.58 0.24 91.58 14.2 88.68 14.2"></polygon>
                <polygon id="Path" points="94.28 14.2 94.28 12.08 96.12 12.08 96.12 2.36 94.28 2.36 94.28 0.24 100.62 0.24 100.62 2.36 98.76 2.36 98.76 12.08 100.62 12.08 100.62 14.2"></polygon>
                <polygon id="Path" points="107.82 7.88 105.96 10.08 105.96 14.2 103.32 14.2 103.32 0.24 105.96 0.24 105.96 7.12 106.06 7.12 108.04 4.5 111.5 0.24 114.54 0.24 109.68 6.06 114.94 14.2 111.8 14.2"></polygon>
            </g>
            <g id="zdavniki-sledilnik-logo" transform="translate(65.304000, 34.320000)" fill-rule="nonzero">
                <g id="ZDRAVNIKI-SLEDILNIK">
                    <path d="M2.12,5.776 C1.62933333,5.776 1.21333333,5.692 0.872,5.524 C0.530666667,5.356 0.24,5.13866667 0,4.872 L0.8,4.064 C1.17866667,4.49066667 1.64533333,4.704 2.2,4.704 C2.49866667,4.704 2.72,4.64266667 2.864,4.52 C3.008,4.39733333 3.08,4.23466667 3.08,4.032 C3.08,3.87733333 3.03733333,3.748 2.952,3.644 C2.86666667,3.54 2.69333333,3.46933333 2.432,3.432 L1.88,3.36 C1.288,3.28533333 0.854666667,3.10666667 0.58,2.824 C0.305333333,2.54133333 0.168,2.16533333 0.168,1.696 C0.168,1.44533333 0.216,1.216 0.312,1.008 C0.408,0.8 0.545333333,0.621333333 0.724,0.472 C0.902666667,0.322666667 1.12133333,0.206666667 1.38,0.124 C1.63866667,0.0413333333 1.93333333,0 2.264,0 C2.68533333,0 3.056,0.0666666667 3.376,0.2 C3.696,0.333333333 3.97066667,0.528 4.2,0.784 L3.392,1.6 C3.25866667,1.44533333 3.09733333,1.31866667 2.908,1.22 C2.71866667,1.12133333 2.48,1.072 2.192,1.072 C1.92,1.072 1.71733333,1.12 1.584,1.216 C1.45066667,1.312 1.384,1.44533333 1.384,1.616 C1.384,1.808 1.436,1.94666667 1.54,2.032 C1.644,2.11733333 1.81333333,2.17866667 2.048,2.216 L2.6,2.304 C3.176,2.39466667 3.60266667,2.572 3.88,2.836 C4.15733333,3.1 4.296,3.47466667 4.296,3.96 C4.296,4.22666667 4.248,4.472 4.152,4.696 C4.056,4.92 3.916,5.112 3.732,5.272 C3.548,5.432 3.32,5.556 3.048,5.644 C2.776,5.732 2.46666667,5.776 2.12,5.776 Z" id="S"></path>
                    <polygon id="L" points="7.704 5.68 7.704 0.096 8.92 0.096 8.92 4.6 11.048 4.6 11.048 5.68"></polygon>
                    <polygon id="E" points="14.344 5.68 14.344 0.096 18.144 0.096 18.144 1.176 15.56 1.176 15.56 2.32 17.776 2.32 17.776 3.392 15.56 3.392 15.56 4.6 18.144 4.6 18.144 5.68"></polygon>
                    <path d="M21.6,0.096 L23.704,0.096 C24.072,0.096 24.408,0.154666667 24.712,0.272 C25.016,0.389333333 25.2746667,0.564 25.488,0.796 C25.7013333,1.028 25.8666667,1.31866667 25.984,1.668 C26.1013333,2.01733333 26.16,2.424 26.16,2.888 C26.16,3.352 26.1013333,3.75866667 25.984,4.108 C25.8666667,4.45733333 25.7013333,4.748 25.488,4.98 C25.2746667,5.212 25.016,5.38666667 24.712,5.504 C24.408,5.62133333 24.072,5.68 23.704,5.68 L21.6,5.68 L21.6,0.096 Z M23.704,4.6 C24.0666667,4.6 24.352,4.49866667 24.56,4.296 C24.768,4.09333333 24.872,3.768 24.872,3.32 L24.872,2.456 C24.872,2.008 24.768,1.68266667 24.56,1.48 C24.352,1.27733333 24.0666667,1.176 23.704,1.176 L22.816,1.176 L22.816,4.6 L23.704,4.6 Z" id="D"></path>
                    <polygon id="I" points="29.36 5.68 29.36 4.712 30.08 4.712 30.08 1.064 29.36 1.064 29.36 0.096 32.016 0.096 32.016 1.064 31.296 1.064 31.296 4.712 32.016 4.712 32.016 5.68"></polygon>
                    <polygon id="L" points="35.432 5.68 35.432 0.096 36.648 0.096 36.648 4.6 38.776 4.6 38.776 5.68"></polygon>
                    <polygon id="N" points="43.776 3.04 43.24 1.92 43.216 1.92 43.216 5.68 42.072 5.68 42.072 0.096 43.4 0.096 44.928 2.736 45.464 3.856 45.488 3.856 45.488 0.096 46.632 0.096 46.632 5.68 45.304 5.68"></polygon>
                    <polygon id="I" points="50.048 5.68 50.048 4.712 50.768 4.712 50.768 1.064 50.048 1.064 50.048 0.096 52.704 0.096 52.704 1.064 51.984 1.064 51.984 4.712 52.704 4.712 52.704 5.68"></polygon>
                    <polygon id="K" points="58.064 3.248 57.336 4.128 57.336 5.68 56.12 5.68 56.12 0.096 57.336 0.096 57.336 2.752 57.384 2.752 58.176 1.672 59.432 0.096 60.808 0.096 58.928 2.392 60.976 5.68 59.544 5.68"></polygon>
                </g>
            </g>
            <path d="M38.5,36 C39.8807119,36 41,37.1192881 41,38.5 C41,39.8807119 39.8807119,41 38.5,41 C37.1192881,41 36,39.8807119 36,38.5 C36,37.1192881 37.1192881,36 38.5,36 Z M15.5,36 C16.8807119,36 18,37.1192881 18,38.5 C18,39.8807119 16.8807119,41 15.5,41 C14.1192881,41 13,39.8807119 13,38.5 C13,37.1192881 14.1192881,36 15.5,36 Z M26.5,17 C32.2989899,17 37,21.7010101 37,27.5 C37,33.2989899 32.2989899,38 26.5,38 C20.7010101,38 16,33.2989899 16,27.5 C16,21.7010101 20.7010101,17 26.5,17 Z M38.5,13 C39.8807119,13 41,14.1192881 41,15.5 C41,16.8807119 39.8807119,18 38.5,18 C37.1192881,18 36,16.8807119 36,15.5 C36,14.1192881 37.1192881,13 38.5,13 Z M15.5,13 C16.8807119,13 18,14.1192881 18,15.5 C18,16.8807119 16.8807119,18 15.5,18 C14.1192881,18 13,16.8807119 13,15.5 C13,14.1192881 14.1192881,13 15.5,13 Z M27,12 C28.1045695,12 29,11.1045695 29,10 C29,8.8954305 28.1045695,8 27,8 C25.8954305,8 25,8.8954305 25,10 C25,11.1045695 25.8954305,12 27,12 Z M27,46 C28.1045695,46 29,45.1045695 29,44 C29,42.8954305 28.1045695,42 27,42 C25.8954305,42 25,42.8954305 25,44 C25,45.1045695 25.8954305,46 27,46 Z M45,47 C46.1045695,47 47,46.1045695 47,45 C47,43.8954305 46.1045695,43 45,43 C43.8954305,43 43,43.8954305 43,45 C43,46.1045695 43.8954305,47 45,47 Z M27,54 C27.5522847,54 28,53.5522847 28,53 C28,52.4477153 27.5522847,52 27,52 C26.4477153,52 26,52.4477153 26,53 C26,53.5522847 26.4477153,54 27,54 Z M46,27 C46,25.8954305 45.1045695,25 44,25 C42.8954305,25 42,25.8954305 42,27 C42,28.1045695 42.8954305,29 44,29 C45.1045695,29 46,28.1045695 46,27 Z M47,9 C47,7.8954305 46.1045695,7 45,7 C43.8954305,7 43,7.8954305 43,9 C43,10.1045695 43.8954305,11 45,11 C46.1045695,11 47,10.1045695 47,9 Z M54,27 C54,26.4477153 53.5522847,26 53,26 C52.4477153,26 52,26.4477153 52,27 C52,27.5522847 52.4477153,28 53,28 C53.5522847,28 54,27.5522847 54,27 Z M8,27 C8,25.8954305 8.8954305,25 10,25 C11.1045695,25 12,25.8954305 12,27 C12,28.1045695 11.1045695,29 10,29 C8.8954305,29 8,28.1045695 8,27 Z M6,9 C6,7.8954305 6.8954305,7 8,7 C9.1045695,7 10,7.8954305 10,9 C10,10.1045695 9.1045695,11 8,11 C6.8954305,11 6,10.1045695 6,9 Z M0,27 C0,26.4477153 0.44771525,26 1,26 C1.55228475,26 2,26.4477153 2,27 C2,27.5522847 1.55228475,28 1,28 C0.44771525,28 0,27.5522847 0,27 Z M6,45 C6,46.1045695 6.8954305,47 8,47 C9.1045695,47 10,46.1045695 10,45 C10,43.8954305 9.1045695,43 8,43 C6.8954305,43 6,43.8954305 6,45 Z M27,2 C27.5522847,2 28,1.55228475 28,1 C28,0.44771525 27.5522847,0 27,0 C26.4477153,0 26,0.44771525 26,1 C26,1.55228475 26.4477153,2 27,2 Z" id="Combined-Shape"></path>
        </g>
    </g>
</svg>