<?xml version="1.0" encoding="utf-8" standalone="no"?>
<!DOCTYPE svg PUBLIC "-//W3C//DTD SVG 1.1//EN"
  "http://www.w3.org/Graphics/SVG/1.1/DTD/svg11.dtd">
<svg xmlns:xlink="http://www.w3.org/1999/xlink" width="944.26pt" height="956.104pt" viewBox="0 0 944.26 956.104" xmlns="http://www.w3.org/2000/svg" version="1.1">
 <metadata>
  <rdf:RDF xmlns:dc="http://purl.org/dc/elements/1.1/" xmlns:cc="http://creativecommons.org/ns#" xmlns:rdf="http://www.w3.org/1999/02/22-rdf-syntax-ns#">
   <cc:Work>
    <dc:type rdf:resource="http://purl.org/dc/dcmitype/StillImage"/>
    <dc:date>2022-02-02T10:21:27.201567</dc:date>
    <dc:format>image/svg+xml</dc:format>
    <dc:creator>
     <cc:Agent>
      <dc:title>Matplotlib v3.5.1, https://matplotlib.org/</dc:title>
     </cc:Agent>
    </dc:creator>
   </cc:Work>
  </rdf:RDF>
 </metadata>
 <defs>
  <style type="text/css">*{stroke-linejoin: round; stroke-linecap: butt}</style>
 </defs>
 <g id="figure_1">
  <g id="patch_1">
   <path d="M 0 956.104 
L 944.26 956.104 
L 944.26 0 
L 0 0 
z
" style="fill: #ffffff"/>
  </g>
  <g id="axes_1">
   <g id="patch_2">
    <path d="M 100.06 875.964 
L 937.06 875.964 
L 937.06 44.364 
L 100.06 44.364 
z
" style="fill: #ffffff"/>
   </g>
   <g id="matplotlib.axis_1">
    <g id="xtick_1">
     <g id="line2d_1">
      <path d="M 183.770833 875.964 
L 183.770833 44.364 
" clip-path="url(#p355edb9c71)" style="fill: none; stroke: #b0b0b0; stroke-width: 0.8; stroke-linecap: square"/>
     </g>
     <g id="line2d_2">
      <defs>
       <path id="m41bebdc518" d="M 0 0 
L 0 3.5 
" style="stroke: #000000; stroke-width: 0.8"/>
      </defs>
      <g>
       <use xlink:href="#m41bebdc518" x="183.770833" y="875.964" style="stroke: #000000; stroke-width: 0.8"/>
      </g>
     </g>
     <g id="text_1">
      <!-- 1960 -->
      <g transform="translate(143.050833 907.279)scale(0.32 -0.32)">
       <defs>
        <path id="DejaVuSans-31" d="M 794 531 
L 1825 531 
L 1825 4091 
L 703 3866 
L 703 4441 
L 1819 4666 
L 2450 4666 
L 2450 531 
L 3481 531 
L 3481 0 
L 794 0 
L 794 531 
z
" transform="scale(0.015625)"/>
        <path id="DejaVuSans-39" d="M 703 97 
L 703 672 
Q 941 559 1184 500 
Q 1428 441 1663 441 
Q 2288 441 2617 861 
Q 2947 1281 2994 2138 
Q 2813 1869 2534 1725 
Q 2256 1581 1919 1581 
Q 1219 1581 811 2004 
Q 403 2428 403 3163 
Q 403 3881 828 4315 
Q 1253 4750 1959 4750 
Q 2769 4750 3195 4129 
Q 3622 3509 3622 2328 
Q 3622 1225 3098 567 
Q 2575 -91 1691 -91 
Q 1453 -91 1209 -44 
Q 966 3 703 97 
z
M 1959 2075 
Q 2384 2075 2632 2365 
Q 2881 2656 2881 3163 
Q 2881 3666 2632 3958 
Q 2384 4250 1959 4250 
Q 1534 4250 1286 3958 
Q 1038 3666 1038 3163 
Q 1038 2656 1286 2365 
Q 1534 2075 1959 2075 
z
" transform="scale(0.015625)"/>
        <path id="DejaVuSans-36" d="M 2113 2584 
Q 1688 2584 1439 2293 
Q 1191 2003 1191 1497 
Q 1191 994 1439 701 
Q 1688 409 2113 409 
Q 2538 409 2786 701 
Q 3034 994 3034 1497 
Q 3034 2003 2786 2293 
Q 2538 2584 2113 2584 
z
M 3366 4563 
L 3366 3988 
Q 3128 4100 2886 4159 
Q 2644 4219 2406 4219 
Q 1781 4219 1451 3797 
Q 1122 3375 1075 2522 
Q 1259 2794 1537 2939 
Q 1816 3084 2150 3084 
Q 2853 3084 3261 2657 
Q 3669 2231 3669 1497 
Q 3669 778 3244 343 
Q 2819 -91 2113 -91 
Q 1303 -91 875 529 
Q 447 1150 447 2328 
Q 447 3434 972 4092 
Q 1497 4750 2381 4750 
Q 2619 4750 2861 4703 
Q 3103 4656 3366 4563 
z
" transform="scale(0.015625)"/>
        <path id="DejaVuSans-30" d="M 2034 4250 
Q 1547 4250 1301 3770 
Q 1056 3291 1056 2328 
Q 1056 1369 1301 889 
Q 1547 409 2034 409 
Q 2525 409 2770 889 
Q 3016 1369 3016 2328 
Q 3016 3291 2770 3770 
Q 2525 4250 2034 4250 
z
M 2034 4750 
Q 2819 4750 3233 4129 
Q 3647 3509 3647 2328 
Q 3647 1150 3233 529 
Q 2819 -91 2034 -91 
Q 1250 -91 836 529 
Q 422 1150 422 2328 
Q 422 3509 836 4129 
Q 1250 4750 2034 4750 
z
" transform="scale(0.015625)"/>
       </defs>
       <use xlink:href="#DejaVuSans-31"/>
       <use xlink:href="#DejaVuSans-39" x="63.623047"/>
       <use xlink:href="#DejaVuSans-36" x="127.246094"/>
       <use xlink:href="#DejaVuSans-30" x="190.869141"/>
      </g>
     </g>
    </g>
    <g id="xtick_2">
     <g id="line2d_3">
      <path d="M 285.226304 875.964 
L 285.226304 44.364 
" clip-path="url(#p355edb9c71)" style="fill: none; stroke: #b0b0b0; stroke-width: 0.8; stroke-linecap: square"/>
     </g>
     <g id="line2d_4">
      <g>
       <use xlink:href="#m41bebdc518" x="285.226304" y="875.964" style="stroke: #000000; stroke-width: 0.8"/>
      </g>
     </g>
     <g id="text_2">
      <!-- 1980 -->
      <g transform="translate(244.506304 907.279)scale(0.32 -0.32)">
       <defs>
        <path id="DejaVuSans-38" d="M 2034 2216 
Q 1584 2216 1326 1975 
Q 1069 1734 1069 1313 
Q 1069 891 1326 650 
Q 1584 409 2034 409 
Q 2484 409 2743 651 
Q 3003 894 3003 1313 
Q 3003 1734 2745 1975 
Q 2488 2216 2034 2216 
z
M 1403 2484 
Q 997 2584 770 2862 
Q 544 3141 544 3541 
Q 544 4100 942 4425 
Q 1341 4750 2034 4750 
Q 2731 4750 3128 4425 
Q 3525 4100 3525 3541 
Q 3525 3141 3298 2862 
Q 3072 2584 2669 2484 
Q 3125 2378 3379 2068 
Q 3634 1759 3634 1313 
Q 3634 634 3220 271 
Q 2806 -91 2034 -91 
Q 1263 -91 848 271 
Q 434 634 434 1313 
Q 434 1759 690 2068 
Q 947 2378 1403 2484 
z
M 1172 3481 
Q 1172 3119 1398 2916 
Q 1625 2713 2034 2713 
Q 2441 2713 2670 2916 
Q 2900 3119 2900 3481 
Q 2900 3844 2670 4047 
Q 2441 4250 2034 4250 
Q 1625 4250 1398 4047 
Q 1172 3844 1172 3481 
z
" transform="scale(0.015625)"/>
       </defs>
       <use xlink:href="#DejaVuSans-31"/>
       <use xlink:href="#DejaVuSans-39" x="63.623047"/>
       <use xlink:href="#DejaVuSans-38" x="127.246094"/>
       <use xlink:href="#DejaVuSans-30" x="190.869141"/>
      </g>
     </g>
    </g>
    <g id="xtick_3">
     <g id="line2d_5">
      <path d="M 386.681776 875.964 
L 386.681776 44.364 
" clip-path="url(#p355edb9c71)" style="fill: none; stroke: #b0b0b0; stroke-width: 0.8; stroke-linecap: square"/>
     </g>
     <g id="line2d_6">
      <g>
       <use xlink:href="#m41bebdc518" x="386.681776" y="875.964" style="stroke: #000000; stroke-width: 0.8"/>
      </g>
     </g>
     <g id="text_3">
      <!-- 2000 -->
      <g transform="translate(345.961776 907.279)scale(0.32 -0.32)">
       <defs>
        <path id="DejaVuSans-32" d="M 1228 531 
L 3431 531 
L 3431 0 
L 469 0 
L 469 531 
Q 828 903 1448 1529 
Q 2069 2156 2228 2338 
Q 2531 2678 2651 2914 
Q 2772 3150 2772 3378 
Q 2772 3750 2511 3984 
Q 2250 4219 1831 4219 
Q 1534 4219 1204 4116 
Q 875 4013 500 3803 
L 500 4441 
Q 881 4594 1212 4672 
Q 1544 4750 1819 4750 
Q 2544 4750 2975 4387 
Q 3406 4025 3406 3419 
Q 3406 3131 3298 2873 
Q 3191 2616 2906 2266 
Q 2828 2175 2409 1742 
Q 1991 1309 1228 531 
z
" transform="scale(0.015625)"/>
       </defs>
       <use xlink:href="#DejaVuSans-32"/>
       <use xlink:href="#DejaVuSans-30" x="63.623047"/>
       <use xlink:href="#DejaVuSans-30" x="127.246094"/>
       <use xlink:href="#DejaVuSans-30" x="190.869141"/>
      </g>
     </g>
    </g>
    <g id="xtick_4">
     <g id="line2d_7">
      <path d="M 488.137247 875.964 
L 488.137247 44.364 
" clip-path="url(#p355edb9c71)" style="fill: none; stroke: #b0b0b0; stroke-width: 0.8; stroke-linecap: square"/>
     </g>
     <g id="line2d_8">
      <g>
       <use xlink:href="#m41bebdc518" x="488.137247" y="875.964" style="stroke: #000000; stroke-width: 0.8"/>
      </g>
     </g>
     <g id="text_4">
      <!-- 2020 -->
      <g transform="translate(447.417247 907.279)scale(0.32 -0.32)">
       <use xlink:href="#DejaVuSans-32"/>
       <use xlink:href="#DejaVuSans-30" x="63.623047"/>
       <use xlink:href="#DejaVuSans-32" x="127.246094"/>
       <use xlink:href="#DejaVuSans-30" x="190.869141"/>
      </g>
     </g>
    </g>
    <g id="xtick_5">
     <g id="line2d_9">
      <path d="M 589.592718 875.964 
L 589.592718 44.364 
" clip-path="url(#p355edb9c71)" style="fill: none; stroke: #b0b0b0; stroke-width: 0.8; stroke-linecap: square"/>
     </g>
     <g id="line2d_10">
      <g>
       <use xlink:href="#m41bebdc518" x="589.592718" y="875.964" style="stroke: #000000; stroke-width: 0.8"/>
      </g>
     </g>
     <g id="text_5">
      <!-- 2040 -->
      <g transform="translate(548.872718 907.279)scale(0.32 -0.32)">
       <defs>
        <path id="DejaVuSans-34" d="M 2419 4116 
L 825 1625 
L 2419 1625 
L 2419 4116 
z
M 2253 4666 
L 3047 4666 
L 3047 1625 
L 3713 1625 
L 3713 1100 
L 3047 1100 
L 3047 0 
L 2419 0 
L 2419 1100 
L 313 1100 
L 313 1709 
L 2253 4666 
z
" transform="scale(0.015625)"/>
       </defs>
       <use xlink:href="#DejaVuSans-32"/>
       <use xlink:href="#DejaVuSans-30" x="63.623047"/>
       <use xlink:href="#DejaVuSans-34" x="127.246094"/>
       <use xlink:href="#DejaVuSans-30" x="190.869141"/>
      </g>
     </g>
    </g>
    <g id="xtick_6">
     <g id="line2d_11">
      <path d="M 691.04819 875.964 
L 691.04819 44.364 
" clip-path="url(#p355edb9c71)" style="fill: none; stroke: #b0b0b0; stroke-width: 0.8; stroke-linecap: square"/>
     </g>
     <g id="line2d_12">
      <g>
       <use xlink:href="#m41bebdc518" x="691.04819" y="875.964" style="stroke: #000000; stroke-width: 0.8"/>
      </g>
     </g>
     <g id="text_6">
      <!-- 2060 -->
      <g transform="translate(650.32819 907.279)scale(0.32 -0.32)">
       <use xlink:href="#DejaVuSans-32"/>
       <use xlink:href="#DejaVuSans-30" x="63.623047"/>
       <use xlink:href="#DejaVuSans-36" x="127.246094"/>
       <use xlink:href="#DejaVuSans-30" x="190.869141"/>
      </g>
     </g>
    </g>
    <g id="xtick_7">
     <g id="line2d_13">
      <path d="M 792.503661 875.964 
L 792.503661 44.364 
" clip-path="url(#p355edb9c71)" style="fill: none; stroke: #b0b0b0; stroke-width: 0.8; stroke-linecap: square"/>
     </g>
     <g id="line2d_14">
      <g>
       <use xlink:href="#m41bebdc518" x="792.503661" y="875.964" style="stroke: #000000; stroke-width: 0.8"/>
      </g>
     </g>
     <g id="text_7">
      <!-- 2080 -->
      <g transform="translate(751.783661 907.279)scale(0.32 -0.32)">
       <use xlink:href="#DejaVuSans-32"/>
       <use xlink:href="#DejaVuSans-30" x="63.623047"/>
       <use xlink:href="#DejaVuSans-38" x="127.246094"/>
       <use xlink:href="#DejaVuSans-30" x="190.869141"/>
      </g>
     </g>
    </g>
    <g id="xtick_8">
     <g id="line2d_15">
      <path d="M 893.959133 875.964 
L 893.959133 44.364 
" clip-path="url(#p355edb9c71)" style="fill: none; stroke: #b0b0b0; stroke-width: 0.8; stroke-linecap: square"/>
     </g>
     <g id="line2d_16">
      <g>
       <use xlink:href="#m41bebdc518" x="893.959133" y="875.964" style="stroke: #000000; stroke-width: 0.8"/>
      </g>
     </g>
     <g id="text_8">
      <!-- 2100 -->
      <g transform="translate(853.239133 907.279)scale(0.32 -0.32)">
       <use xlink:href="#DejaVuSans-32"/>
       <use xlink:href="#DejaVuSans-31" x="63.623047"/>
       <use xlink:href="#DejaVuSans-30" x="127.246094"/>
       <use xlink:href="#DejaVuSans-30" x="190.869141"/>
      </g>
     </g>
    </g>
    <g id="text_9">
     <!-- Year -->
     <g transform="translate(484.68 942.249)scale(0.32 -0.32)">
      <defs>
       <path id="DejaVuSans-59" d="M -13 4666 
L 666 4666 
L 1959 2747 
L 3244 4666 
L 3922 4666 
L 2272 2222 
L 2272 0 
L 1638 0 
L 1638 2222 
L -13 4666 
z
" transform="scale(0.015625)"/>
       <path id="DejaVuSans-65" d="M 3597 1894 
L 3597 1613 
L 953 1613 
Q 991 1019 1311 708 
Q 1631 397 2203 397 
Q 2534 397 2845 478 
Q 3156 559 3463 722 
L 3463 178 
Q 3153 47 2828 -22 
Q 2503 -91 2169 -91 
Q 1331 -91 842 396 
Q 353 884 353 1716 
Q 353 2575 817 3079 
Q 1281 3584 2069 3584 
Q 2775 3584 3186 3129 
Q 3597 2675 3597 1894 
z
M 3022 2063 
Q 3016 2534 2758 2815 
Q 2500 3097 2075 3097 
Q 1594 3097 1305 2825 
Q 1016 2553 972 2059 
L 3022 2063 
z
" transform="scale(0.015625)"/>
       <path id="DejaVuSans-61" d="M 2194 1759 
Q 1497 1759 1228 1600 
Q 959 1441 959 1056 
Q 959 750 1161 570 
Q 1363 391 1709 391 
Q 2188 391 2477 730 
Q 2766 1069 2766 1631 
L 2766 1759 
L 2194 1759 
z
M 3341 1997 
L 3341 0 
L 2766 0 
L 2766 531 
Q 2569 213 2275 61 
Q 1981 -91 1556 -91 
Q 1019 -91 701 211 
Q 384 513 384 1019 
Q 384 1609 779 1909 
Q 1175 2209 1959 2209 
L 2766 2209 
L 2766 2266 
Q 2766 2663 2505 2880 
Q 2244 3097 1772 3097 
Q 1472 3097 1187 3025 
Q 903 2953 641 2809 
L 641 3341 
Q 956 3463 1253 3523 
Q 1550 3584 1831 3584 
Q 2591 3584 2966 3190 
Q 3341 2797 3341 1997 
z
" transform="scale(0.015625)"/>
       <path id="DejaVuSans-72" d="M 2631 2963 
Q 2534 3019 2420 3045 
Q 2306 3072 2169 3072 
Q 1681 3072 1420 2755 
Q 1159 2438 1159 1844 
L 1159 0 
L 581 0 
L 581 3500 
L 1159 3500 
L 1159 2956 
Q 1341 3275 1631 3429 
Q 1922 3584 2338 3584 
Q 2397 3584 2469 3576 
Q 2541 3569 2628 3553 
L 2631 2963 
z
" transform="scale(0.015625)"/>
      </defs>
      <use xlink:href="#DejaVuSans-59"/>
      <use xlink:href="#DejaVuSans-65" x="47.833984"/>
      <use xlink:href="#DejaVuSans-61" x="109.357422"/>
      <use xlink:href="#DejaVuSans-72" x="170.636719"/>
     </g>
    </g>
   </g>
   <g id="matplotlib.axis_2">
    <g id="ytick_1">
     <g id="line2d_17">
      <path d="M 100.06 768.851896 
L 937.06 768.851896 
" clip-path="url(#p355edb9c71)" style="fill: none; stroke: #b0b0b0; stroke-width: 0.8; stroke-linecap: square"/>
     </g>
     <g id="line2d_18">
      <defs>
       <path id="mf8bd87d44f" d="M 0 0 
L -3.5 0 
" style="stroke: #000000; stroke-width: 0.8"/>
      </defs>
      <g>
       <use xlink:href="#mf8bd87d44f" x="100.06" y="768.851896" style="stroke: #000000; stroke-width: 0.8"/>
      </g>
     </g>
     <g id="text_10">
      <!-- 0.0 -->
      <g transform="translate(42.17 781.009396)scale(0.32 -0.32)">
       <defs>
        <path id="DejaVuSans-2e" d="M 684 794 
L 1344 794 
L 1344 0 
L 684 0 
L 684 794 
z
" transform="scale(0.015625)"/>
       </defs>
       <use xlink:href="#DejaVuSans-30"/>
       <use xlink:href="#DejaVuSans-2e" x="63.623047"/>
       <use xlink:href="#DejaVuSans-30" x="95.410156"/>
      </g>
     </g>
    </g>
    <g id="ytick_2">
     <g id="line2d_19">
      <path d="M 100.06 633.46937 
L 937.06 633.46937 
" clip-path="url(#p355edb9c71)" style="fill: none; stroke: #b0b0b0; stroke-width: 0.8; stroke-linecap: square"/>
     </g>
     <g id="line2d_20">
      <g>
       <use xlink:href="#mf8bd87d44f" x="100.06" y="633.46937" style="stroke: #000000; stroke-width: 0.8"/>
      </g>
     </g>
     <g id="text_11">
      <!-- 0.2 -->
      <g transform="translate(42.17 645.62687)scale(0.32 -0.32)">
       <use xlink:href="#DejaVuSans-30"/>
       <use xlink:href="#DejaVuSans-2e" x="63.623047"/>
       <use xlink:href="#DejaVuSans-32" x="95.410156"/>
      </g>
     </g>
    </g>
    <g id="ytick_3">
     <g id="line2d_21">
      <path d="M 100.06 498.086843 
L 937.06 498.086843 
" clip-path="url(#p355edb9c71)" style="fill: none; stroke: #b0b0b0; stroke-width: 0.8; stroke-linecap: square"/>
     </g>
     <g id="line2d_22">
      <g>
       <use xlink:href="#mf8bd87d44f" x="100.06" y="498.086843" style="stroke: #000000; stroke-width: 0.8"/>
      </g>
     </g>
     <g id="text_12">
      <!-- 0.4 -->
      <g transform="translate(42.17 510.244343)scale(0.32 -0.32)">
       <use xlink:href="#DejaVuSans-30"/>
       <use xlink:href="#DejaVuSans-2e" x="63.623047"/>
       <use xlink:href="#DejaVuSans-34" x="95.410156"/>
      </g>
     </g>
    </g>
    <g id="ytick_4">
     <g id="line2d_23">
      <path d="M 100.06 362.704316 
L 937.06 362.704316 
" clip-path="url(#p355edb9c71)" style="fill: none; stroke: #b0b0b0; stroke-width: 0.8; stroke-linecap: square"/>
     </g>
     <g id="line2d_24">
      <g>
       <use xlink:href="#mf8bd87d44f" x="100.06" y="362.704316" style="stroke: #000000; stroke-width: 0.8"/>
      </g>
     </g>
     <g id="text_13">
      <!-- 0.6 -->
      <g transform="translate(42.17 374.861816)scale(0.32 -0.32)">
       <use xlink:href="#DejaVuSans-30"/>
       <use xlink:href="#DejaVuSans-2e" x="63.623047"/>
       <use xlink:href="#DejaVuSans-36" x="95.410156"/>
      </g>
     </g>
    </g>
    <g id="ytick_5">
     <g id="line2d_25">
      <path d="M 100.06 227.321789 
L 937.06 227.321789 
" clip-path="url(#p355edb9c71)" style="fill: none; stroke: #b0b0b0; stroke-width: 0.8; stroke-linecap: square"/>
     </g>
     <g id="line2d_26">
      <g>
       <use xlink:href="#mf8bd87d44f" x="100.06" y="227.321789" style="stroke: #000000; stroke-width: 0.8"/>
      </g>
     </g>
     <g id="text_14">
      <!-- 0.8 -->
      <g transform="translate(42.17 239.479289)scale(0.32 -0.32)">
       <use xlink:href="#DejaVuSans-30"/>
       <use xlink:href="#DejaVuSans-2e" x="63.623047"/>
       <use xlink:href="#DejaVuSans-38" x="95.410156"/>
      </g>
     </g>
    </g>
    <g id="ytick_6">
     <g id="line2d_27">
      <path d="M 100.06 91.939263 
L 937.06 91.939263 
" clip-path="url(#p355edb9c71)" style="fill: none; stroke: #b0b0b0; stroke-width: 0.8; stroke-linecap: square"/>
     </g>
     <g id="line2d_28">
      <g>
       <use xlink:href="#mf8bd87d44f" x="100.06" y="91.939263" style="stroke: #000000; stroke-width: 0.8"/>
      </g>
     </g>
     <g id="text_15">
      <!-- 1.0 -->
      <g transform="translate(42.17 104.096763)scale(0.32 -0.32)">
       <use xlink:href="#DejaVuSans-31"/>
       <use xlink:href="#DejaVuSans-2e" x="63.623047"/>
       <use xlink:href="#DejaVuSans-30" x="95.410156"/>
      </g>
     </g>
    </g>
    <g id="text_16">
     <!-- MSLR [m] -->
     <g transform="translate(31.515 537.314)rotate(-90)scale(0.32 -0.32)">
      <defs>
       <path id="DejaVuSans-4d" d="M 628 4666 
L 1569 4666 
L 2759 1491 
L 3956 4666 
L 4897 4666 
L 4897 0 
L 4281 0 
L 4281 4097 
L 3078 897 
L 2444 897 
L 1241 4097 
L 1241 0 
L 628 0 
L 628 4666 
z
" transform="scale(0.015625)"/>
       <path id="DejaVuSans-53" d="M 3425 4513 
L 3425 3897 
Q 3066 4069 2747 4153 
Q 2428 4238 2131 4238 
Q 1616 4238 1336 4038 
Q 1056 3838 1056 3469 
Q 1056 3159 1242 3001 
Q 1428 2844 1947 2747 
L 2328 2669 
Q 3034 2534 3370 2195 
Q 3706 1856 3706 1288 
Q 3706 609 3251 259 
Q 2797 -91 1919 -91 
Q 1588 -91 1214 -16 
Q 841 59 441 206 
L 441 856 
Q 825 641 1194 531 
Q 1563 422 1919 422 
Q 2459 422 2753 634 
Q 3047 847 3047 1241 
Q 3047 1584 2836 1778 
Q 2625 1972 2144 2069 
L 1759 2144 
Q 1053 2284 737 2584 
Q 422 2884 422 3419 
Q 422 4038 858 4394 
Q 1294 4750 2059 4750 
Q 2388 4750 2728 4690 
Q 3069 4631 3425 4513 
z
" transform="scale(0.015625)"/>
       <path id="DejaVuSans-4c" d="M 628 4666 
L 1259 4666 
L 1259 531 
L 3531 531 
L 3531 0 
L 628 0 
L 628 4666 
z
" transform="scale(0.015625)"/>
       <path id="DejaVuSans-52" d="M 2841 2188 
Q 3044 2119 3236 1894 
Q 3428 1669 3622 1275 
L 4263 0 
L 3584 0 
L 2988 1197 
Q 2756 1666 2539 1819 
Q 2322 1972 1947 1972 
L 1259 1972 
L 1259 0 
L 628 0 
L 628 4666 
L 2053 4666 
Q 2853 4666 3247 4331 
Q 3641 3997 3641 3322 
Q 3641 2881 3436 2590 
Q 3231 2300 2841 2188 
z
M 1259 4147 
L 1259 2491 
L 2053 2491 
Q 2509 2491 2742 2702 
Q 2975 2913 2975 3322 
Q 2975 3731 2742 3939 
Q 2509 4147 2053 4147 
L 1259 4147 
z
" transform="scale(0.015625)"/>
       <path id="DejaVuSans-20" transform="scale(0.015625)"/>
       <path id="DejaVuSans-5b" d="M 550 4863 
L 1875 4863 
L 1875 4416 
L 1125 4416 
L 1125 -397 
L 1875 -397 
L 1875 -844 
L 550 -844 
L 550 4863 
z
" transform="scale(0.015625)"/>
       <path id="DejaVuSans-6d" d="M 3328 2828 
Q 3544 3216 3844 3400 
Q 4144 3584 4550 3584 
Q 5097 3584 5394 3201 
Q 5691 2819 5691 2113 
L 5691 0 
L 5113 0 
L 5113 2094 
Q 5113 2597 4934 2840 
Q 4756 3084 4391 3084 
Q 3944 3084 3684 2787 
Q 3425 2491 3425 1978 
L 3425 0 
L 2847 0 
L 2847 2094 
Q 2847 2600 2669 2842 
Q 2491 3084 2119 3084 
Q 1678 3084 1418 2786 
Q 1159 2488 1159 1978 
L 1159 0 
L 581 0 
L 581 3500 
L 1159 3500 
L 1159 2956 
Q 1356 3278 1631 3431 
Q 1906 3584 2284 3584 
Q 2666 3584 2933 3390 
Q 3200 3197 3328 2828 
z
" transform="scale(0.015625)"/>
       <path id="DejaVuSans-5d" d="M 1947 4863 
L 1947 -844 
L 622 -844 
L 622 -397 
L 1369 -397 
L 1369 4416 
L 622 4416 
L 622 4863 
L 1947 4863 
z
" transform="scale(0.015625)"/>
      </defs>
      <use xlink:href="#DejaVuSans-4d"/>
      <use xlink:href="#DejaVuSans-53" x="86.279297"/>
      <use xlink:href="#DejaVuSans-4c" x="149.755859"/>
      <use xlink:href="#DejaVuSans-52" x="205.46875"/>
      <use xlink:href="#DejaVuSans-20" x="274.951172"/>
      <use xlink:href="#DejaVuSans-5b" x="306.738281"/>
      <use xlink:href="#DejaVuSans-6d" x="345.751953"/>
      <use xlink:href="#DejaVuSans-5d" x="443.164062"/>
     </g>
    </g>
   </g>
   <g id="line2d_29">
    <path d="M 138.105455 814.302464 
L 143.174756 795.689804 
L 148.257946 798.090317 
L 153.327247 794.751752 
L 158.396549 795.506062 
L 163.46585 808.77793 
L 168.54904 816.798295 
L 173.618342 797.653155 
L 178.687643 819.433327 
L 183.756945 824.843636 
L 188.840134 803.921971 
L 193.909436 793.625342 
L 198.978737 838.164 
L 204.048039 820.887195 
L 209.131229 802.423619 
L 214.20053 807.445102 
L 219.269832 797.748336 
L 224.339133 776.692052 
L 229.422323 775.290714 
L 234.491624 792.89058 
L 239.560926 810.976567 
L 244.630227 797.121058 
L 249.713417 793.072727 
L 254.782719 784.858211 
L 259.85202 773.109145 
L 264.921322 799.317414 
L 270.004512 822.847985 
L 275.073813 807.760496 
L 280.143114 776.11543 
L 285.212416 772.838718 
L 290.295606 761.692801 
L 295.364907 783.343438 
L 300.434209 802.335945 
L 305.50351 782.169296 
L 310.5867 789.709349 
L 315.656002 793.602909 
L 320.725303 782.285456 
L 325.794604 761.052856 
L 330.877794 761.636457 
L 335.947096 807.421157 
L 341.016397 789.60842 
L 351.168889 751.439323 
L 356.23819 748.889868 
L 361.307492 771.454388 
L 366.376793 774.42551 
L 371.459983 778.527301 
L 376.529284 768.205313 
L 381.598586 783.743541 
L 386.667887 773.042491 
L 391.751077 743.756139 
L 396.820379 760.604195 
L 401.88968 764.606268 
L 406.958982 763.844252 
L 412.042171 752.958796 
L 417.111473 756.269117 
L 417.111473 756.269117 
" clip-path="url(#p355edb9c71)" style="fill: none; stroke: #000000; stroke-width: 3; stroke-linecap: square"/>
   </g>
   <g id="line2d_30">
    <path d="M 138.105455 806.714463 
L 143.174756 803.93018 
L 148.257946 801.906079 
L 153.327247 802.772708 
L 158.396549 804.453983 
L 163.46585 802.567435 
L 168.54904 804.283553 
L 173.618342 808.453885 
L 178.687643 812.274979 
L 183.756945 814.611514 
L 188.840134 817.234772 
L 193.909436 816.890124 
L 198.978737 812.65742 
L 204.048039 807.504973 
L 209.131229 805.06881 
L 214.20053 800.677307 
L 219.269832 798.758362 
L 224.339133 798.52852 
L 229.422323 793.700426 
L 234.491624 786.334745 
L 239.560926 787.383806 
L 244.630227 791.73141 
L 249.713417 794.295447 
L 254.782719 797.67532 
L 259.85202 797.516428 
L 264.921322 793.375258 
L 270.004512 790.365294 
L 275.073813 787.635563 
L 280.143114 787.245892 
L 285.212416 787.496385 
L 290.295606 788.870536 
L 295.364907 787.825396 
L 300.434209 780.373115 
L 305.50351 778.25815 
L 310.5867 781.845904 
L 315.656002 786.596595 
L 320.725303 787.218591 
L 325.794604 783.792557 
L 330.877794 777.933629 
L 335.947096 773.432979 
L 341.016397 772.732193 
L 346.085699 769.48118 
L 351.168889 769.040043 
L 356.23819 772.152071 
L 361.307492 772.182187 
L 366.376793 769.235889 
L 371.459983 765.468522 
L 376.529284 767.821205 
L 381.598586 769.347682 
L 381.598586 769.347682 
" clip-path="url(#p355edb9c71)" style="fill: none; stroke: #000000; stroke-opacity: 0.4; stroke-width: 5; stroke-linecap: square"/>
   </g>
   <g id="line2d_31">
    <path d="M 422.180774 748.70953 
L 427.250076 756.609234 
L 432.333266 746.718815 
L 437.402567 743.694509 
L 442.471869 738.803718 
L 447.54117 758.714109 
L 452.62436 746.482691 
L 457.693661 733.924152 
L 462.762963 726.765499 
L 467.832264 735.468986 
L 472.915454 707.464729 
L 477.984756 731.133654 
L 483.054057 737.627397 
L 488.123359 726.380474 
L 493.206549 713.29161 
L 498.27585 734.369007 
L 503.345151 723.921932 
L 508.414453 725.85498 
L 513.497643 705.641022 
L 518.566944 711.367313 
L 523.636246 699.931402 
L 528.705547 699.881181 
L 533.788737 708.002833 
L 538.858039 684.420962 
L 543.92734 675.43153 
L 548.996641 661.713848 
L 554.079831 662.348772 
L 559.149133 673.387047 
L 564.218434 674.791075 
L 569.287736 640.036782 
L 574.370926 646.376123 
L 579.440227 636.953105 
L 584.509529 631.878543 
L 589.57883 653.824499 
L 594.66202 650.912694 
L 599.731321 620.61342 
L 604.800623 635.6838 
L 609.869924 606.389726 
L 614.953114 606.931801 
L 620.022416 607.180003 
L 625.091717 608.09941 
L 630.161018 585.497876 
L 635.244208 597.039908 
L 640.31351 578.460739 
L 645.382811 580.058344 
L 650.452113 568.37661 
L 655.535303 571.067244 
L 660.604604 549.876176 
L 665.673906 537.136536 
L 670.743207 536.715997 
L 675.826397 529.159728 
L 680.895698 500.534535 
L 685.965 523.883642 
L 691.034301 502.263144 
L 696.117491 505.310095 
L 701.186793 505.130919 
L 706.256094 477.14862 
L 711.325396 471.759293 
L 716.408586 443.172344 
L 721.477887 444.604693 
L 726.547188 425.888759 
L 731.61649 402.44649 
L 736.69968 426.895576 
L 741.768981 414.284428 
L 746.838283 416.945742 
L 751.907584 421.545849 
L 756.990774 412.615414 
L 762.060075 389.366699 
L 767.129377 378.372993 
L 772.198678 363.779215 
L 777.281868 342.254649 
L 782.35117 350.90988 
L 787.420471 363.228203 
L 792.489773 331.712983 
L 797.572963 304.159365 
L 802.642264 304.766012 
L 807.711565 269.300785 
L 812.780867 294.472651 
L 817.864057 281.799903 
L 822.933358 280.156429 
L 828.00266 251.532838 
L 833.071961 248.009378 
L 838.155151 221.065763 
L 843.224453 210.294055 
L 848.293754 229.689437 
L 853.363055 203.231599 
L 858.446245 192.850528 
L 863.515547 145.884548 
L 868.584848 157.51364 
L 873.65415 152.949004 
L 878.73734 154.919533 
L 883.806641 129.018826 
L 888.875943 121.081239 
L 893.945244 102.934537 
L 899.014545 82.164 
L 899.014545 82.164 
" clip-path="url(#p355edb9c71)" style="fill: none; stroke: #ff4500; stroke-width: 3; stroke-linecap: square"/>
   </g>
   <g id="line2d_32">
    <path d="M 457.693661 737.247821 
L 462.762963 732.868274 
L 467.832264 731.094999 
L 472.915454 728.713773 
L 477.984756 727.887324 
L 483.054057 725.29326 
L 488.123359 725.882039 
L 493.206549 725.506723 
L 498.27585 723.133318 
L 503.345151 721.680832 
L 508.414453 720.612255 
L 518.566944 710.675876 
L 523.636246 704.69154 
L 528.705547 697.744625 
L 533.788737 691.931248 
L 538.858039 686.497063 
L 543.92734 680.846958 
L 548.996641 675.826555 
L 554.079831 667.099255 
L 559.149133 660.597934 
L 564.218434 656.61765 
L 569.287736 651.417423 
L 574.370926 650.860793 
L 579.440227 647.934493 
L 584.509529 643.817231 
L 589.57883 637.831311 
L 594.66202 633.240857 
L 599.731321 628.280735 
L 604.800623 625.966699 
L 609.869924 619.574004 
L 614.953114 614.022241 
L 620.022416 606.45768 
L 625.091717 599.307486 
L 635.244208 589.93193 
L 640.31351 582.594868 
L 645.382811 578.691997 
L 650.452113 568.714831 
L 655.535303 560.312013 
L 660.604604 551.218185 
L 665.673906 542.899564 
L 670.743207 535.044059 
L 680.895698 521.780669 
L 691.034301 506.270837 
L 696.117491 499.876992 
L 716.408586 453.733507 
L 721.477887 441.181866 
L 726.547188 433.999554 
L 731.61649 426.319113 
L 736.69968 420.717704 
L 741.768981 417.734964 
L 746.838283 411.391782 
L 751.907584 404.388482 
L 756.990774 398.059695 
L 762.060075 393.211647 
L 767.129377 384.564852 
L 772.198678 373.878142 
L 777.281868 360.709053 
L 782.35117 347.16389 
L 787.420471 334.061617 
L 797.572963 315.888303 
L 802.642264 307.395072 
L 807.711565 298.074131 
L 812.780867 285.341352 
L 817.864057 273.013169 
L 822.933358 262.134896 
L 828.00266 257.109456 
L 833.071961 247.346727 
L 843.224453 221.990689 
L 848.293754 207.527448 
L 853.363055 195.60766 
L 858.446245 184.450847 
L 863.515547 175.296224 
L 873.65415 151.264752 
L 883.806641 123.502212 
L 888.875943 113.960204 
L 893.945244 105.14877 
L 899.014545 98.593777 
L 899.014545 98.593777 
" clip-path="url(#p355edb9c71)" style="fill: none; stroke: #ff4500; stroke-opacity: 0.4; stroke-width: 5; stroke-linecap: square"/>
   </g>
   <g id="line2d_33">
    <path d="M 422.180774 755.051899 
L 427.250076 765.555977 
L 432.333266 773.810357 
L 437.402567 771.913633 
L 442.471869 750.514878 
L 447.54117 731.727256 
L 452.62436 742.184824 
L 457.693661 741.480178 
L 462.762963 735.823687 
L 467.832264 726.725324 
L 472.915454 749.540911 
L 477.984756 741.245483 
L 483.054057 736.599909 
L 488.123359 700.333192 
L 493.206549 711.992304 
L 498.27585 724.425496 
L 503.345151 726.844456 
L 508.414453 721.505234 
L 513.497643 732.618182 
L 518.566944 729.68417 
L 523.636246 713.690906 
L 528.705547 713.295187 
L 533.788737 705.637572 
L 538.858039 713.477022 
L 543.92734 718.9437 
L 554.079831 688.073168 
L 559.149133 719.712078 
L 564.218434 715.785135 
L 569.287736 704.186569 
L 574.370926 699.411837 
L 579.440227 691.373344 
L 584.509529 676.238839 
L 589.57883 682.591033 
L 594.66202 681.516702 
L 599.731321 676.084061 
L 604.800623 690.406587 
L 609.869924 690.245899 
L 614.953114 680.745497 
L 620.022416 690.869949 
L 625.091717 678.980695 
L 630.161018 683.893149 
L 635.244208 656.15996 
L 640.31351 640.251029 
L 645.382811 651.506948 
L 650.452113 644.657898 
L 655.535303 635.866987 
L 660.604604 637.851756 
L 665.673906 653.258411 
L 670.743207 608.602066 
L 675.826397 603.898411 
L 680.895698 615.933333 
L 685.965 591.139204 
L 691.034301 611.974357 
L 696.117491 587.110679 
L 701.186793 609.849561 
L 706.256094 579.4171 
L 711.325396 584.440609 
L 716.408586 598.517868 
L 721.477887 598.259862 
L 726.547188 570.851826 
L 731.61649 579.273789 
L 736.69968 563.670368 
L 741.768981 566.304267 
L 746.838283 593.562059 
L 751.907584 570.580063 
L 756.990774 568.240502 
L 762.060075 562.961708 
L 767.129377 534.353645 
L 772.198678 528.320248 
L 777.281868 517.3306 
L 782.35117 534.784708 
L 787.420471 506.225371 
L 792.489773 495.36247 
L 797.572963 513.140182 
L 802.642264 499.91384 
L 807.711565 508.747528 
L 812.780867 489.947794 
L 817.864057 503.738338 
L 822.933358 478.216669 
L 828.00266 480.708967 
L 833.071961 475.390527 
L 838.155151 470.392678 
L 843.224453 467.193209 
L 848.293754 444.311538 
L 853.363055 453.821124 
L 858.446245 438.039435 
L 863.515547 480.255176 
L 868.584848 457.573241 
L 873.65415 451.254424 
L 878.73734 453.230271 
L 883.806641 413.493129 
L 888.875943 411.307167 
L 893.945244 440.934171 
L 899.014545 423.912559 
L 899.014545 423.912559 
" clip-path="url(#p355edb9c71)" style="fill: none; stroke: #4682b4; stroke-width: 3; stroke-linecap: square"/>
   </g>
   <g id="line2d_34">
    <path d="M 457.693661 744.126671 
L 462.762963 737.916351 
L 467.832264 732.919168 
L 472.915454 730.59872 
L 488.123359 725.961451 
L 493.206549 724.97412 
L 498.27585 724.522932 
L 503.345151 722.585129 
L 508.414453 719.202031 
L 513.497643 720.098458 
L 518.566944 721.865524 
L 523.636246 720.569186 
L 528.705547 716.326619 
L 533.788737 713.447321 
L 538.858039 711.631539 
L 548.996641 709.32671 
L 559.149133 706.662284 
L 564.218434 704.021092 
L 569.287736 699.712941 
L 574.370926 694.907075 
L 579.440227 692.017155 
L 584.509529 689.512837 
L 589.57883 687.35324 
L 594.66202 682.738442 
L 599.731321 683.807808 
L 604.800623 685.64241 
L 609.869924 684.599743 
L 614.953114 683.356126 
L 620.022416 681.303293 
L 625.091717 676.058135 
L 630.161018 669.103185 
L 635.244208 665.392195 
L 640.31351 659.057485 
L 645.382811 651.618119 
L 650.452113 646.131361 
L 655.535303 637.286255 
L 660.604604 632.41758 
L 665.673906 625.055701 
L 670.743207 622.6423 
L 675.826397 617.367796 
L 680.895698 609.337967 
L 685.965 603.579356 
L 691.034301 600.729932 
L 696.117491 596.334432 
L 701.186793 594.067897 
L 706.256094 594.248385 
L 711.325396 588.832708 
L 716.408586 585.854328 
L 721.477887 584.596189 
L 726.547188 581.256022 
L 731.61649 582.012353 
L 736.69968 579.119022 
L 741.768981 577.951959 
L 746.838283 570.775918 
L 751.907584 565.271226 
L 756.990774 560.552693 
L 762.060075 553.765449 
L 767.129377 545.298214 
L 777.281868 527.620865 
L 782.35117 517.400993 
L 787.420471 513.644683 
L 792.489773 508.579887 
L 797.572963 505.038746 
L 802.642264 502.912154 
L 807.711565 498.98318 
L 812.780867 496.215785 
L 817.864057 490.434973 
L 822.933358 487.838669 
L 828.00266 478.950878 
L 833.071961 471.964819 
L 838.155151 467.756257 
L 843.224453 462.784621 
L 848.293754 462.707692 
L 853.363055 459.813142 
L 863.515547 451.598624 
L 878.73734 440.679235 
L 883.806641 437.587301 
L 888.875943 432.408682 
L 893.945244 428.259872 
L 899.014545 422.555115 
L 899.014545 422.555115 
" clip-path="url(#p355edb9c71)" style="fill: none; stroke: #4682b4; stroke-opacity: 0.4; stroke-width: 5; stroke-linecap: square"/>
   </g>
   <g id="patch_3">
    <path d="M 100.06 875.964 
L 100.06 44.364 
" style="fill: none; stroke: #000000; stroke-width: 0.8; stroke-linejoin: miter; stroke-linecap: square"/>
   </g>
   <g id="patch_4">
    <path d="M 937.06 875.964 
L 937.06 44.364 
" style="fill: none; stroke: #000000; stroke-width: 0.8; stroke-linejoin: miter; stroke-linecap: square"/>
   </g>
   <g id="patch_5">
    <path d="M 100.06 875.964 
L 937.06 875.964 
" style="fill: none; stroke: #000000; stroke-width: 0.8; stroke-linejoin: miter; stroke-linecap: square"/>
   </g>
   <g id="patch_6">
    <path d="M 100.06 44.364 
L 937.06 44.364 
" style="fill: none; stroke: #000000; stroke-width: 0.8; stroke-linejoin: miter; stroke-linecap: square"/>
   </g>
   <g id="text_17">
    <!-- MSLR in Northern Adriatic -->
    <g transform="translate(271.321 36.378)scale(0.384 -0.384)">
     <defs>
      <path id="DejaVuSans-69" d="M 603 3500 
L 1178 3500 
L 1178 0 
L 603 0 
L 603 3500 
z
M 603 4863 
L 1178 4863 
L 1178 4134 
L 603 4134 
L 603 4863 
z
" transform="scale(0.015625)"/>
      <path id="DejaVuSans-6e" d="M 3513 2113 
L 3513 0 
L 2938 0 
L 2938 2094 
Q 2938 2591 2744 2837 
Q 2550 3084 2163 3084 
Q 1697 3084 1428 2787 
Q 1159 2491 1159 1978 
L 1159 0 
L 581 0 
L 581 3500 
L 1159 3500 
L 1159 2956 
Q 1366 3272 1645 3428 
Q 1925 3584 2291 3584 
Q 2894 3584 3203 3211 
Q 3513 2838 3513 2113 
z
" transform="scale(0.015625)"/>
      <path id="DejaVuSans-4e" d="M 628 4666 
L 1478 4666 
L 3547 763 
L 3547 4666 
L 4159 4666 
L 4159 0 
L 3309 0 
L 1241 3903 
L 1241 0 
L 628 0 
L 628 4666 
z
" transform="scale(0.015625)"/>
      <path id="DejaVuSans-6f" d="M 1959 3097 
Q 1497 3097 1228 2736 
Q 959 2375 959 1747 
Q 959 1119 1226 758 
Q 1494 397 1959 397 
Q 2419 397 2687 759 
Q 2956 1122 2956 1747 
Q 2956 2369 2687 2733 
Q 2419 3097 1959 3097 
z
M 1959 3584 
Q 2709 3584 3137 3096 
Q 3566 2609 3566 1747 
Q 3566 888 3137 398 
Q 2709 -91 1959 -91 
Q 1206 -91 779 398 
Q 353 888 353 1747 
Q 353 2609 779 3096 
Q 1206 3584 1959 3584 
z
" transform="scale(0.015625)"/>
      <path id="DejaVuSans-74" d="M 1172 4494 
L 1172 3500 
L 2356 3500 
L 2356 3053 
L 1172 3053 
L 1172 1153 
Q 1172 725 1289 603 
Q 1406 481 1766 481 
L 2356 481 
L 2356 0 
L 1766 0 
Q 1100 0 847 248 
Q 594 497 594 1153 
L 594 3053 
L 172 3053 
L 172 3500 
L 594 3500 
L 594 4494 
L 1172 4494 
z
" transform="scale(0.015625)"/>
      <path id="DejaVuSans-68" d="M 3513 2113 
L 3513 0 
L 2938 0 
L 2938 2094 
Q 2938 2591 2744 2837 
Q 2550 3084 2163 3084 
Q 1697 3084 1428 2787 
Q 1159 2491 1159 1978 
L 1159 0 
L 581 0 
L 581 4863 
L 1159 4863 
L 1159 2956 
Q 1366 3272 1645 3428 
Q 1925 3584 2291 3584 
Q 2894 3584 3203 3211 
Q 3513 2838 3513 2113 
z
" transform="scale(0.015625)"/>
      <path id="DejaVuSans-41" d="M 2188 4044 
L 1331 1722 
L 3047 1722 
L 2188 4044 
z
M 1831 4666 
L 2547 4666 
L 4325 0 
L 3669 0 
L 3244 1197 
L 1141 1197 
L 716 0 
L 50 0 
L 1831 4666 
z
" transform="scale(0.015625)"/>
      <path id="DejaVuSans-64" d="M 2906 2969 
L 2906 4863 
L 3481 4863 
L 3481 0 
L 2906 0 
L 2906 525 
Q 2725 213 2448 61 
Q 2172 -91 1784 -91 
Q 1150 -91 751 415 
Q 353 922 353 1747 
Q 353 2572 751 3078 
Q 1150 3584 1784 3584 
Q 2172 3584 2448 3432 
Q 2725 3281 2906 2969 
z
M 947 1747 
Q 947 1113 1208 752 
Q 1469 391 1925 391 
Q 2381 391 2643 752 
Q 2906 1113 2906 1747 
Q 2906 2381 2643 2742 
Q 2381 3103 1925 3103 
Q 1469 3103 1208 2742 
Q 947 2381 947 1747 
z
" transform="scale(0.015625)"/>
      <path id="DejaVuSans-63" d="M 3122 3366 
L 3122 2828 
Q 2878 2963 2633 3030 
Q 2388 3097 2138 3097 
Q 1578 3097 1268 2742 
Q 959 2388 959 1747 
Q 959 1106 1268 751 
Q 1578 397 2138 397 
Q 2388 397 2633 464 
Q 2878 531 3122 666 
L 3122 134 
Q 2881 22 2623 -34 
Q 2366 -91 2075 -91 
Q 1284 -91 818 406 
Q 353 903 353 1747 
Q 353 2603 823 3093 
Q 1294 3584 2113 3584 
Q 2378 3584 2631 3529 
Q 2884 3475 3122 3366 
z
" transform="scale(0.015625)"/>
     </defs>
     <use xlink:href="#DejaVuSans-4d"/>
     <use xlink:href="#DejaVuSans-53" x="86.279297"/>
     <use xlink:href="#DejaVuSans-4c" x="149.755859"/>
     <use xlink:href="#DejaVuSans-52" x="205.46875"/>
     <use xlink:href="#DejaVuSans-20" x="274.951172"/>
     <use xlink:href="#DejaVuSans-69" x="306.738281"/>
     <use xlink:href="#DejaVuSans-6e" x="334.521484"/>
     <use xlink:href="#DejaVuSans-20" x="397.900391"/>
     <use xlink:href="#DejaVuSans-4e" x="429.6875"/>
     <use xlink:href="#DejaVuSans-6f" x="504.492188"/>
     <use xlink:href="#DejaVuSans-72" x="565.673828"/>
     <use xlink:href="#DejaVuSans-74" x="606.787109"/>
     <use xlink:href="#DejaVuSans-68" x="645.996094"/>
     <use xlink:href="#DejaVuSans-65" x="709.375"/>
     <use xlink:href="#DejaVuSans-72" x="770.898438"/>
     <use xlink:href="#DejaVuSans-6e" x="810.261719"/>
     <use xlink:href="#DejaVuSans-20" x="873.640625"/>
     <use xlink:href="#DejaVuSans-41" x="905.427734"/>
     <use xlink:href="#DejaVuSans-64" x="972.085938"/>
     <use xlink:href="#DejaVuSans-72" x="1035.5625"/>
     <use xlink:href="#DejaVuSans-69" x="1076.675781"/>
     <use xlink:href="#DejaVuSans-61" x="1104.458984"/>
     <use xlink:href="#DejaVuSans-74" x="1165.738281"/>
     <use xlink:href="#DejaVuSans-69" x="1204.947266"/>
     <use xlink:href="#DejaVuSans-63" x="1232.730469"/>
    </g>
   </g>
   <g id="legend_1">
    <g id="patch_7">
     <path d="M 122.46 351.784 
L 771.065 351.784 
Q 777.465 351.784 777.465 345.384 
L 777.465 66.764 
Q 777.465 60.364 771.065 60.364 
L 122.46 60.364 
Q 116.06 60.364 116.06 66.764 
L 116.06 345.384 
Q 116.06 351.784 122.46 351.784 
z
" style="fill: #ffffff; opacity: 0.8; stroke: #cccccc; stroke-linejoin: miter"/>
    </g>
    <g id="line2d_35">
     <path d="M 128.86 86.279 
L 160.86 86.279 
L 192.86 86.279 
" style="fill: none; stroke: #000000; stroke-width: 3; stroke-linecap: square"/>
    </g>
    <g id="text_18">
     <!-- MedCordex Reanalysis -->
     <g transform="translate(218.46 97.479)scale(0.32 -0.32)">
      <defs>
       <path id="DejaVuSans-43" d="M 4122 4306 
L 4122 3641 
Q 3803 3938 3442 4084 
Q 3081 4231 2675 4231 
Q 1875 4231 1450 3742 
Q 1025 3253 1025 2328 
Q 1025 1406 1450 917 
Q 1875 428 2675 428 
Q 3081 428 3442 575 
Q 3803 722 4122 1019 
L 4122 359 
Q 3791 134 3420 21 
Q 3050 -91 2638 -91 
Q 1578 -91 968 557 
Q 359 1206 359 2328 
Q 359 3453 968 4101 
Q 1578 4750 2638 4750 
Q 3056 4750 3426 4639 
Q 3797 4528 4122 4306 
z
" transform="scale(0.015625)"/>
       <path id="DejaVuSans-78" d="M 3513 3500 
L 2247 1797 
L 3578 0 
L 2900 0 
L 1881 1375 
L 863 0 
L 184 0 
L 1544 1831 
L 300 3500 
L 978 3500 
L 1906 2253 
L 2834 3500 
L 3513 3500 
z
" transform="scale(0.015625)"/>
       <path id="DejaVuSans-6c" d="M 603 4863 
L 1178 4863 
L 1178 0 
L 603 0 
L 603 4863 
z
" transform="scale(0.015625)"/>
       <path id="DejaVuSans-79" d="M 2059 -325 
Q 1816 -950 1584 -1140 
Q 1353 -1331 966 -1331 
L 506 -1331 
L 506 -850 
L 844 -850 
Q 1081 -850 1212 -737 
Q 1344 -625 1503 -206 
L 1606 56 
L 191 3500 
L 800 3500 
L 1894 763 
L 2988 3500 
L 3597 3500 
L 2059 -325 
z
" transform="scale(0.015625)"/>
       <path id="DejaVuSans-73" d="M 2834 3397 
L 2834 2853 
Q 2591 2978 2328 3040 
Q 2066 3103 1784 3103 
Q 1356 3103 1142 2972 
Q 928 2841 928 2578 
Q 928 2378 1081 2264 
Q 1234 2150 1697 2047 
L 1894 2003 
Q 2506 1872 2764 1633 
Q 3022 1394 3022 966 
Q 3022 478 2636 193 
Q 2250 -91 1575 -91 
Q 1294 -91 989 -36 
Q 684 19 347 128 
L 347 722 
Q 666 556 975 473 
Q 1284 391 1588 391 
Q 1994 391 2212 530 
Q 2431 669 2431 922 
Q 2431 1156 2273 1281 
Q 2116 1406 1581 1522 
L 1381 1569 
Q 847 1681 609 1914 
Q 372 2147 372 2553 
Q 372 3047 722 3315 
Q 1072 3584 1716 3584 
Q 2034 3584 2315 3537 
Q 2597 3491 2834 3397 
z
" transform="scale(0.015625)"/>
      </defs>
      <use xlink:href="#DejaVuSans-4d"/>
      <use xlink:href="#DejaVuSans-65" x="86.279297"/>
      <use xlink:href="#DejaVuSans-64" x="147.802734"/>
      <use xlink:href="#DejaVuSans-43" x="211.279297"/>
      <use xlink:href="#DejaVuSans-6f" x="281.103516"/>
      <use xlink:href="#DejaVuSans-72" x="342.285156"/>
      <use xlink:href="#DejaVuSans-64" x="381.648438"/>
      <use xlink:href="#DejaVuSans-65" x="445.125"/>
      <use xlink:href="#DejaVuSans-78" x="504.898438"/>
      <use xlink:href="#DejaVuSans-20" x="564.078125"/>
      <use xlink:href="#DejaVuSans-52" x="595.865234"/>
      <use xlink:href="#DejaVuSans-65" x="660.847656"/>
      <use xlink:href="#DejaVuSans-61" x="722.371094"/>
      <use xlink:href="#DejaVuSans-6e" x="783.650391"/>
      <use xlink:href="#DejaVuSans-61" x="847.029297"/>
      <use xlink:href="#DejaVuSans-6c" x="908.308594"/>
      <use xlink:href="#DejaVuSans-79" x="936.091797"/>
      <use xlink:href="#DejaVuSans-73" x="995.271484"/>
      <use xlink:href="#DejaVuSans-69" x="1047.371094"/>
      <use xlink:href="#DejaVuSans-73" x="1075.154297"/>
     </g>
    </g>
    <g id="line2d_36">
     <path d="M 128.86 133.249 
L 160.86 133.249 
L 192.86 133.249 
" style="fill: none; stroke: #000000; stroke-opacity: 0.4; stroke-width: 5; stroke-linecap: square"/>
    </g>
    <g id="text_19">
     <!-- 15yr Rolling Mean Historical MSLR -->
     <g transform="translate(218.46 144.449)scale(0.32 -0.32)">
      <defs>
       <path id="DejaVuSans-35" d="M 691 4666 
L 3169 4666 
L 3169 4134 
L 1269 4134 
L 1269 2991 
Q 1406 3038 1543 3061 
Q 1681 3084 1819 3084 
Q 2600 3084 3056 2656 
Q 3513 2228 3513 1497 
Q 3513 744 3044 326 
Q 2575 -91 1722 -91 
Q 1428 -91 1123 -41 
Q 819 9 494 109 
L 494 744 
Q 775 591 1075 516 
Q 1375 441 1709 441 
Q 2250 441 2565 725 
Q 2881 1009 2881 1497 
Q 2881 1984 2565 2268 
Q 2250 2553 1709 2553 
Q 1456 2553 1204 2497 
Q 953 2441 691 2322 
L 691 4666 
z
" transform="scale(0.015625)"/>
       <path id="DejaVuSans-67" d="M 2906 1791 
Q 2906 2416 2648 2759 
Q 2391 3103 1925 3103 
Q 1463 3103 1205 2759 
Q 947 2416 947 1791 
Q 947 1169 1205 825 
Q 1463 481 1925 481 
Q 2391 481 2648 825 
Q 2906 1169 2906 1791 
z
M 3481 434 
Q 3481 -459 3084 -895 
Q 2688 -1331 1869 -1331 
Q 1566 -1331 1297 -1286 
Q 1028 -1241 775 -1147 
L 775 -588 
Q 1028 -725 1275 -790 
Q 1522 -856 1778 -856 
Q 2344 -856 2625 -561 
Q 2906 -266 2906 331 
L 2906 616 
Q 2728 306 2450 153 
Q 2172 0 1784 0 
Q 1141 0 747 490 
Q 353 981 353 1791 
Q 353 2603 747 3093 
Q 1141 3584 1784 3584 
Q 2172 3584 2450 3431 
Q 2728 3278 2906 2969 
L 2906 3500 
L 3481 3500 
L 3481 434 
z
" transform="scale(0.015625)"/>
       <path id="DejaVuSans-48" d="M 628 4666 
L 1259 4666 
L 1259 2753 
L 3553 2753 
L 3553 4666 
L 4184 4666 
L 4184 0 
L 3553 0 
L 3553 2222 
L 1259 2222 
L 1259 0 
L 628 0 
L 628 4666 
z
" transform="scale(0.015625)"/>
      </defs>
      <use xlink:href="#DejaVuSans-31"/>
      <use xlink:href="#DejaVuSans-35" x="63.623047"/>
      <use xlink:href="#DejaVuSans-79" x="127.246094"/>
      <use xlink:href="#DejaVuSans-72" x="186.425781"/>
      <use xlink:href="#DejaVuSans-20" x="227.539062"/>
      <use xlink:href="#DejaVuSans-52" x="259.326172"/>
      <use xlink:href="#DejaVuSans-6f" x="324.308594"/>
      <use xlink:href="#DejaVuSans-6c" x="385.490234"/>
      <use xlink:href="#DejaVuSans-6c" x="413.273438"/>
      <use xlink:href="#DejaVuSans-69" x="441.056641"/>
      <use xlink:href="#DejaVuSans-6e" x="468.839844"/>
      <use xlink:href="#DejaVuSans-67" x="532.21875"/>
      <use xlink:href="#DejaVuSans-20" x="595.695312"/>
      <use xlink:href="#DejaVuSans-4d" x="627.482422"/>
      <use xlink:href="#DejaVuSans-65" x="713.761719"/>
      <use xlink:href="#DejaVuSans-61" x="775.285156"/>
      <use xlink:href="#DejaVuSans-6e" x="836.564453"/>
      <use xlink:href="#DejaVuSans-20" x="899.943359"/>
      <use xlink:href="#DejaVuSans-48" x="931.730469"/>
      <use xlink:href="#DejaVuSans-69" x="1006.925781"/>
      <use xlink:href="#DejaVuSans-73" x="1034.708984"/>
      <use xlink:href="#DejaVuSans-74" x="1086.808594"/>
      <use xlink:href="#DejaVuSans-6f" x="1126.017578"/>
      <use xlink:href="#DejaVuSans-72" x="1187.199219"/>
      <use xlink:href="#DejaVuSans-69" x="1228.3125"/>
      <use xlink:href="#DejaVuSans-63" x="1256.095703"/>
      <use xlink:href="#DejaVuSans-61" x="1311.076172"/>
      <use xlink:href="#DejaVuSans-6c" x="1372.355469"/>
      <use xlink:href="#DejaVuSans-20" x="1400.138672"/>
      <use xlink:href="#DejaVuSans-4d" x="1431.925781"/>
      <use xlink:href="#DejaVuSans-53" x="1518.205078"/>
      <use xlink:href="#DejaVuSans-4c" x="1581.681641"/>
      <use xlink:href="#DejaVuSans-52" x="1637.394531"/>
     </g>
    </g>
    <g id="line2d_37">
     <path d="M 128.86 180.219 
L 160.86 180.219 
L 192.86 180.219 
" style="fill: none; stroke: #ff4500; stroke-width: 3; stroke-linecap: square"/>
    </g>
    <g id="text_20">
     <!-- Total MSLR RCP8.5 -->
     <g transform="translate(218.46 191.419)scale(0.32 -0.32)">
      <defs>
       <path id="DejaVuSans-54" d="M -19 4666 
L 3928 4666 
L 3928 4134 
L 2272 4134 
L 2272 0 
L 1638 0 
L 1638 4134 
L -19 4134 
L -19 4666 
z
" transform="scale(0.015625)"/>
       <path id="DejaVuSans-50" d="M 1259 4147 
L 1259 2394 
L 2053 2394 
Q 2494 2394 2734 2622 
Q 2975 2850 2975 3272 
Q 2975 3691 2734 3919 
Q 2494 4147 2053 4147 
L 1259 4147 
z
M 628 4666 
L 2053 4666 
Q 2838 4666 3239 4311 
Q 3641 3956 3641 3272 
Q 3641 2581 3239 2228 
Q 2838 1875 2053 1875 
L 1259 1875 
L 1259 0 
L 628 0 
L 628 4666 
z
" transform="scale(0.015625)"/>
      </defs>
      <use xlink:href="#DejaVuSans-54"/>
      <use xlink:href="#DejaVuSans-6f" x="44.083984"/>
      <use xlink:href="#DejaVuSans-74" x="105.265625"/>
      <use xlink:href="#DejaVuSans-61" x="144.474609"/>
      <use xlink:href="#DejaVuSans-6c" x="205.753906"/>
      <use xlink:href="#DejaVuSans-20" x="233.537109"/>
      <use xlink:href="#DejaVuSans-4d" x="265.324219"/>
      <use xlink:href="#DejaVuSans-53" x="351.603516"/>
      <use xlink:href="#DejaVuSans-4c" x="415.080078"/>
      <use xlink:href="#DejaVuSans-52" x="470.792969"/>
      <use xlink:href="#DejaVuSans-20" x="540.275391"/>
      <use xlink:href="#DejaVuSans-52" x="572.0625"/>
      <use xlink:href="#DejaVuSans-43" x="636.544922"/>
      <use xlink:href="#DejaVuSans-50" x="706.369141"/>
      <use xlink:href="#DejaVuSans-38" x="766.671875"/>
      <use xlink:href="#DejaVuSans-2e" x="830.294922"/>
      <use xlink:href="#DejaVuSans-35" x="862.082031"/>
     </g>
    </g>
    <g id="line2d_38">
     <path d="M 128.86 227.189 
L 160.86 227.189 
L 192.86 227.189 
" style="fill: none; stroke: #ff4500; stroke-opacity: 0.4; stroke-width: 5; stroke-linecap: square"/>
    </g>
    <g id="text_21">
     <!-- 15yr Rolling Mean RCP8.5 -->
     <g transform="translate(218.46 238.389)scale(0.32 -0.32)">
      <use xlink:href="#DejaVuSans-31"/>
      <use xlink:href="#DejaVuSans-35" x="63.623047"/>
      <use xlink:href="#DejaVuSans-79" x="127.246094"/>
      <use xlink:href="#DejaVuSans-72" x="186.425781"/>
      <use xlink:href="#DejaVuSans-20" x="227.539062"/>
      <use xlink:href="#DejaVuSans-52" x="259.326172"/>
      <use xlink:href="#DejaVuSans-6f" x="324.308594"/>
      <use xlink:href="#DejaVuSans-6c" x="385.490234"/>
      <use xlink:href="#DejaVuSans-6c" x="413.273438"/>
      <use xlink:href="#DejaVuSans-69" x="441.056641"/>
      <use xlink:href="#DejaVuSans-6e" x="468.839844"/>
      <use xlink:href="#DejaVuSans-67" x="532.21875"/>
      <use xlink:href="#DejaVuSans-20" x="595.695312"/>
      <use xlink:href="#DejaVuSans-4d" x="627.482422"/>
      <use xlink:href="#DejaVuSans-65" x="713.761719"/>
      <use xlink:href="#DejaVuSans-61" x="775.285156"/>
      <use xlink:href="#DejaVuSans-6e" x="836.564453"/>
      <use xlink:href="#DejaVuSans-20" x="899.943359"/>
      <use xlink:href="#DejaVuSans-52" x="931.730469"/>
      <use xlink:href="#DejaVuSans-43" x="996.212891"/>
      <use xlink:href="#DejaVuSans-50" x="1066.037109"/>
      <use xlink:href="#DejaVuSans-38" x="1126.339844"/>
      <use xlink:href="#DejaVuSans-2e" x="1189.962891"/>
      <use xlink:href="#DejaVuSans-35" x="1221.75"/>
     </g>
    </g>
    <g id="line2d_39">
     <path d="M 128.86 274.159 
L 160.86 274.159 
L 192.86 274.159 
" style="fill: none; stroke: #4682b4; stroke-width: 3; stroke-linecap: square"/>
    </g>
    <g id="text_22">
     <!-- Total MSLR RCP4.5 -->
     <g transform="translate(218.46 285.359)scale(0.32 -0.32)">
      <use xlink:href="#DejaVuSans-54"/>
      <use xlink:href="#DejaVuSans-6f" x="44.083984"/>
      <use xlink:href="#DejaVuSans-74" x="105.265625"/>
      <use xlink:href="#DejaVuSans-61" x="144.474609"/>
      <use xlink:href="#DejaVuSans-6c" x="205.753906"/>
      <use xlink:href="#DejaVuSans-20" x="233.537109"/>
      <use xlink:href="#DejaVuSans-4d" x="265.324219"/>
      <use xlink:href="#DejaVuSans-53" x="351.603516"/>
      <use xlink:href="#DejaVuSans-4c" x="415.080078"/>
      <use xlink:href="#DejaVuSans-52" x="470.792969"/>
      <use xlink:href="#DejaVuSans-20" x="540.275391"/>
      <use xlink:href="#DejaVuSans-52" x="572.0625"/>
      <use xlink:href="#DejaVuSans-43" x="636.544922"/>
      <use xlink:href="#DejaVuSans-50" x="706.369141"/>
      <use xlink:href="#DejaVuSans-34" x="766.671875"/>
      <use xlink:href="#DejaVuSans-2e" x="830.294922"/>
      <use xlink:href="#DejaVuSans-35" x="862.082031"/>
     </g>
    </g>
    <g id="line2d_40">
     <path d="M 128.86 321.129 
L 160.86 321.129 
L 192.86 321.129 
" style="fill: none; stroke: #4682b4; stroke-opacity: 0.4; stroke-width: 5; stroke-linecap: square"/>
    </g>
    <g id="text_23">
     <!-- 15yr Rolling Mean RCP4.5 -->
     <g transform="translate(218.46 332.329)scale(0.32 -0.32)">
      <use xlink:href="#DejaVuSans-31"/>
      <use xlink:href="#DejaVuSans-35" x="63.623047"/>
      <use xlink:href="#DejaVuSans-79" x="127.246094"/>
      <use xlink:href="#DejaVuSans-72" x="186.425781"/>
      <use xlink:href="#DejaVuSans-20" x="227.539062"/>
      <use xlink:href="#DejaVuSans-52" x="259.326172"/>
      <use xlink:href="#DejaVuSans-6f" x="324.308594"/>
      <use xlink:href="#DejaVuSans-6c" x="385.490234"/>
      <use xlink:href="#DejaVuSans-6c" x="413.273438"/>
      <use xlink:href="#DejaVuSans-69" x="441.056641"/>
      <use xlink:href="#DejaVuSans-6e" x="468.839844"/>
      <use xlink:href="#DejaVuSans-67" x="532.21875"/>
      <use xlink:href="#DejaVuSans-20" x="595.695312"/>
      <use xlink:href="#DejaVuSans-4d" x="627.482422"/>
      <use xlink:href="#DejaVuSans-65" x="713.761719"/>
      <use xlink:href="#DejaVuSans-61" x="775.285156"/>
      <use xlink:href="#DejaVuSans-6e" x="836.564453"/>
      <use xlink:href="#DejaVuSans-20" x="899.943359"/>
      <use xlink:href="#DejaVuSans-52" x="931.730469"/>
      <use xlink:href="#DejaVuSans-43" x="996.212891"/>
      <use xlink:href="#DejaVuSans-50" x="1066.037109"/>
      <use xlink:href="#DejaVuSans-34" x="1126.339844"/>
      <use xlink:href="#DejaVuSans-2e" x="1189.962891"/>
      <use xlink:href="#DejaVuSans-35" x="1221.75"/>
     </g>
    </g>
   </g>
  </g>
 </g>
 <defs>
  <clipPath id="p355edb9c71">
   <rect x="100.06" y="44.364" width="837" height="831.6"/>
  </clipPath>
 </defs>
</svg>
